<svg width="228" height="50" viewBox="0 0 228 50" fill="none" xmlns="http://www.w3.org/2000/svg">
<path d="M46.9258 17.9313C42.8983 5.39004 29.3837 -1.5379 16.7401 2.45715C4.09667 6.45229 -2.88772 19.8579 1.14001 32.3991C3.95247 41.1563 11.3918 47.1705 19.9289 48.6461C19.8509 48.31 19.7842 47.8282 19.7353 47.5697C19.6676 47.2065 19.6103 46.8433 19.5623 46.4798C19.465 45.7517 19.3901 45.0282 19.3321 44.2927C19.3134 44.056 19.4917 43.8488 19.7308 43.8303C19.911 43.8163 20.0736 43.9141 20.1508 44.0647C20.9667 43.6389 21.9093 43.4523 22.8983 43.3683C22.9218 43.3624 22.9427 43.3507 22.9678 43.3488C22.9916 43.347 23.0129 43.3553 23.036 43.3573C23.0883 43.3534 23.14 43.3483 23.1925 43.3448C23.1896 43.3614 23.1883 43.3797 23.1855 43.3965C23.32 43.4612 23.4208 43.5871 23.4328 43.7455C23.434 43.7595 23.4345 43.7736 23.434 43.7873V43.7945C23.4245 44.1835 23.4317 44.5948 23.4465 44.9965C23.4616 45.4005 23.4848 45.8053 23.5188 46.2092C23.5838 47.0177 23.688 47.8239 23.8303 48.6247L23.8306 48.626C23.831 48.6282 23.8794 48.8388 23.916 48.9988C26.3681 49.0102 28.8631 48.6514 31.3257 47.8734C32.5771 47.4779 33.7706 46.987 34.9059 46.4171C34.7726 45.9227 34.5916 45.2073 34.4716 44.8594C34.3095 44.3835 34.1329 43.9134 33.9441 43.4493C33.7525 42.9865 33.5495 42.5293 33.3287 42.0833C33.1088 41.6432 32.7875 41.0232 32.5341 40.6402L32.5247 40.6258C32.3934 40.4272 32.4491 40.1605 32.6493 40.0301C32.8391 39.9067 33.0864 39.9545 33.2241 40.1281C33.725 39.8794 34.5436 39.5849 35.6916 39.3838C35.7141 39.2871 35.7909 39.201 35.9081 39.1225C36.1067 38.9899 36.3764 39.0419 36.5105 39.2388C36.5183 39.2504 36.5259 39.2631 36.5325 39.275C36.7821 39.7341 36.892 39.9843 37.0772 40.4401C37.2588 40.8926 37.4205 41.35 37.5697 41.8106C37.7134 42.2729 37.8498 42.736 37.964 43.2044C38.0278 43.4552 38.1375 43.9775 38.2235 44.396C46.3297 38.5117 50.1429 27.9487 46.9258 17.9313Z" fill="white"/>
<path d="M33.2678 40.1833C33.537 40.6711 33.813 41.2994 34.0104 41.7835C34.203 42.2639 34.3742 42.7499 34.5323 43.2387C34.688 43.7286 34.83 44.2212 34.9565 44.7173C35.0439 45.0554 35.1855 45.7202 35.2896 46.2166C36.2022 45.7377 37.077 45.2092 37.9058 44.6283C37.79 44.2019 37.6362 43.5994 37.5392 43.3313C37.3822 42.8847 37.2046 42.4466 37.0217 42.0122C36.8328 41.58 36.6332 41.1538 36.4169 40.7384C36.2025 40.3277 36.0433 40.0917 35.7991 39.7323L35.7378 39.6041C35.6827 39.5232 35.676 39.4514 35.6917 39.384C34.5436 39.5851 33.725 39.8795 33.2241 40.1283C33.2318 40.138 33.2428 40.1435 33.2498 40.154C33.256 40.1634 33.2625 40.1738 33.2678 40.1833Z" fill="#A93439"/>
<path d="M23.1925 43.3447C23.1401 43.3482 23.0883 43.3533 23.0361 43.3572C23.0895 43.3618 23.1392 43.374 23.1856 43.3964C23.1884 43.3797 23.1896 43.3614 23.1925 43.3447Z" fill="#A93439"/>
<path d="M20.1982 44.2689V44.2731C20.1814 44.9864 20.1821 45.7106 20.2046 46.427C20.2148 46.7859 20.2345 47.1434 20.2636 47.4985C20.2935 47.8522 20.3324 48.2088 20.4137 48.5361L20.415 48.5424C20.4173 48.5514 20.4365 48.6428 20.4548 48.7329C21.4428 48.8812 22.4443 48.9666 23.454 48.9906C23.2507 48.2052 23.0367 47.0258 22.9026 46.2897C22.8273 45.882 22.7622 45.4721 22.7056 45.0604C22.6492 44.6464 22.6005 44.2401 22.5678 43.8103C22.5519 43.5981 22.6972 43.4182 22.8984 43.3684C21.9095 43.4524 20.9668 43.639 20.1509 44.0649C20.1759 44.1137 20.1925 44.1679 20.197 44.2259C20.1982 44.2402 20.1986 44.2547 20.1982 44.2689Z" fill="#A93439"/>
<path d="M20.0485 44.1162C20.082 44.0977 20.1172 44.0826 20.1511 44.0649C20.0739 43.9142 19.9113 43.8164 19.7312 43.8304C19.4921 43.8489 19.3137 44.0561 19.3324 44.2929C19.3904 45.0283 19.4654 45.7519 19.5626 46.48C19.6106 46.8435 19.6679 47.2066 19.7356 47.5698C19.7846 47.8284 19.8512 48.3101 19.9293 48.6462C20.0117 48.6605 20.0943 48.6737 20.1769 48.6871C20.0247 47.8924 19.6819 45.7494 20.0485 44.1162Z" fill="#1D5632"/>
<path d="M20.1767 48.6869C20.2695 48.7019 20.3618 48.7188 20.4548 48.7328C20.4364 48.6427 20.4173 48.5512 20.415 48.5423L20.4137 48.5359C20.3324 48.2087 20.2935 47.852 20.2636 47.4984C20.2344 47.1433 20.2148 46.7858 20.2046 46.4269C20.1821 45.7105 20.1813 44.9863 20.1982 44.273V44.2687C20.1986 44.2546 20.1982 44.24 20.197 44.2258C20.1925 44.1678 20.1759 44.1136 20.1509 44.0647C20.1169 44.0825 20.0817 44.0975 20.0483 44.1161C19.6817 45.7493 20.0245 47.8923 20.1767 48.6869Z" fill="#1D5632"/>
<path d="M23.8305 48.6247C23.6882 47.824 23.584 47.0178 23.5189 46.2092C23.485 45.8054 23.4617 45.4006 23.4466 44.9965C23.4319 44.5948 23.4247 44.1835 23.4341 43.7945L23.4342 43.7874C23.4346 43.7736 23.4342 43.7595 23.4329 43.7455C23.421 43.5871 23.3202 43.4612 23.1857 43.3965C22.8744 45.3157 23.4614 48.1974 23.6388 48.9938C23.7312 48.9954 23.8235 48.9984 23.9161 48.9988C23.8795 48.8389 23.8311 48.6283 23.8307 48.6262L23.8305 48.6247Z" fill="#1D5632"/>
<path d="M22.9679 43.3491C22.9429 43.351 22.922 43.3627 22.8984 43.3686C22.9442 43.3647 22.9902 43.3611 23.0361 43.3576C23.0131 43.3556 22.9918 43.3473 22.9679 43.3491Z" fill="#1D5632"/>
<path d="M22.5676 43.8104C22.6003 44.2401 22.649 44.6464 22.7055 45.0605C22.7619 45.4722 22.8271 45.882 22.9024 46.2898C23.0366 47.0258 23.2505 48.2054 23.4539 48.9907C23.5154 48.9922 23.577 48.993 23.6386 48.994C23.4613 48.1976 22.8742 45.3158 23.1856 43.3967C23.139 43.3743 23.0894 43.3621 23.0359 43.3574C22.99 43.3609 22.944 43.3645 22.8982 43.3685C22.697 43.4183 22.5517 43.5983 22.5676 43.8104Z" fill="#1D5632"/>
<path d="M32.6516 40.4902C32.729 40.4093 32.9242 40.277 33.224 40.1282C33.0864 39.9545 32.8391 39.9068 32.6493 40.0302C32.4491 40.1605 32.3934 40.4273 32.5248 40.6259L32.5342 40.6403C32.7875 41.0233 33.1088 41.6433 33.3286 42.0834C33.5495 42.5294 33.7525 42.9865 33.9441 43.4494C34.1329 43.9134 34.3095 44.3836 34.4717 44.8594C34.5915 45.2073 34.7726 45.9228 34.9058 46.4172C34.956 46.392 35.0047 46.3649 35.0545 46.3395C34.3809 42.6955 32.6516 40.4902 32.6516 40.4902Z" fill="#1D5632"/>
<path d="M35.0548 46.3395C35.1337 46.2992 35.2115 46.2577 35.2899 46.2166C35.1857 45.7203 35.0442 45.0554 34.9568 44.7173C34.8302 44.2212 34.6882 43.7285 34.5325 43.2386C34.3745 42.7498 34.2032 42.2638 34.0107 41.7835C33.8132 41.2993 33.5372 40.671 33.268 40.1833C33.2627 40.1737 33.2561 40.1633 33.25 40.1539C33.243 40.1434 33.232 40.138 33.2243 40.1282C32.9244 40.277 32.7292 40.4093 32.6519 40.4902C32.6519 40.4902 34.3812 42.6956 35.0548 46.3395Z" fill="#1D5632"/>
<path d="M37.57 41.8108C37.4209 41.3503 37.2591 40.8928 37.0776 40.4403C36.8924 39.9845 36.7824 39.7343 36.5328 39.2752C36.5262 39.2632 36.5185 39.2506 36.5108 39.2391C36.3767 39.0421 36.107 38.9901 35.9084 39.1228C35.7912 39.2012 35.7144 39.2873 35.6919 39.3841C35.8535 39.3558 36.011 39.3261 36.186 39.3021C37.5967 41.4619 37.9738 43.514 38.0751 44.5048C38.1251 44.4692 38.1742 44.4323 38.2239 44.3961C38.1378 43.9776 38.0281 43.4554 37.9643 43.2046C37.8501 42.7363 37.7137 42.2731 37.57 41.8108Z" fill="#1D5632"/>
<path d="M35.7376 39.604L35.799 39.7323C36.043 40.0917 36.2023 40.3277 36.4166 40.7383C36.633 41.1538 36.8326 41.58 37.0215 42.0122C37.2045 42.4466 37.3821 42.8848 37.539 43.3313C37.6361 43.5994 37.7899 44.2019 37.9056 44.6283C37.9629 44.5882 38.0178 44.5454 38.0746 44.5048C37.9734 43.5139 37.5964 41.4619 36.1855 39.302C36.0106 39.326 35.8531 39.3557 35.6915 39.384C35.6757 39.4514 35.6824 39.5232 35.7376 39.604Z" fill="#1D5632"/>
<path d="M12.3869 20.1429C12.3869 20.1429 8.81515 20.1642 6.8267 20.2916C4.81564 20.4499 2.848 20.6123 3.77949 23.0644C4.27413 24.3267 5.74568 26.073 6.84235 26.7986C8.77046 28.0745 11.3498 28.335 12.7732 27.7243L12.5629 20.1057" fill="#1D5632"/>
<path d="M33.3446 15.9891C33.3446 15.9891 38.795 14.0916 39.7539 13.8377C40.6242 13.6074 41.3176 13.3564 41.3489 14.068C41.3444 14.7446 41.1472 16.6403 40.6943 18.6687C40.1905 20.9263 37.3875 23.5157 35.8468 24.127C35.7858 24.0911 35.7404 23.9801 35.7348 23.89C35.0377 21.3481 34.4563 19.5319 34.4563 19.5319L33.3438 15.9982" fill="#1D5632"/>
<path d="M33.6021 17.1414L34.9549 22.0599C34.9549 22.0599 35.1377 19.6695 36.5179 19.5572C36.2282 18.7876 34.7477 17.6107 33.6021 17.1414Z" fill="#D99A29"/>
<path d="M13.3113 30.2038C13.4249 31.062 13.5394 31.9194 13.6916 32.7647C13.8461 33.6085 14.0458 34.4428 14.3499 35.2217C14.4988 35.612 14.68 35.9849 14.8889 36.3345C15.0972 36.6847 15.3334 37.0123 15.6055 37.3074C15.8748 37.6049 16.1825 37.8668 16.521 38.0888C16.6845 38.2035 16.8779 38.2998 17.0537 38.4087C17.236 38.5108 17.4241 38.605 17.6109 38.7008C19.1319 39.4381 20.8264 39.8208 22.4999 40.3923C22.9173 40.5435 23.3348 40.7014 23.741 40.9C23.8439 40.945 23.942 41.0049 24.0426 41.0567L24.3307 41.2116C24.5114 41.3131 24.6997 41.3994 24.8908 41.4784C25.2744 41.6343 25.6775 41.7415 26.088 41.796C26.293 41.8242 26.5004 41.8376 26.7067 41.835C26.9088 41.8333 27.1278 41.8166 27.3058 41.7802L27.3209 41.7771C27.4399 41.7525 27.5562 41.8286 27.5807 41.9465C27.605 42.0618 27.5321 42.1748 27.4176 42.2028C27.1705 42.2629 26.9526 42.2827 26.7197 42.2948C26.4905 42.306 26.2609 42.299 26.0334 42.2761C25.5779 42.2321 25.1282 42.1292 24.699 41.9725C24.4849 41.893 24.2738 41.8047 24.0709 41.7001L23.7782 41.5572C23.6833 41.5136 23.5932 41.4627 23.4948 41.4245C23.1108 41.2561 22.7063 41.1219 22.2993 40.993C21.4794 40.7421 20.6341 40.5361 19.7893 40.2905C18.9453 40.0425 18.099 39.7602 17.2816 39.3843C17.0795 39.2854 16.8763 39.188 16.6773 39.081C16.4805 38.9657 16.2844 38.8649 16.0898 38.7321C15.7001 38.4787 15.3398 38.1747 15.0251 37.8299C14.3864 37.1415 13.9859 36.2821 13.7407 35.424C13.4917 34.5609 13.3749 33.6853 13.299 32.8165C13.2227 31.9467 13.1975 31.0794 13.1851 30.2127C13.1846 30.178 13.2125 30.1496 13.2476 30.1489C13.28 30.1486 13.3072 30.1725 13.3113 30.2038Z" fill="#1D5632"/>
<path d="M36.2142 32.2035C36.9928 31.8411 37.9923 31.8972 38.7346 32.4303C39.1045 32.6919 39.3976 33.0541 39.6002 33.451C39.7045 33.6504 39.7788 33.8595 39.8471 34.0531C39.9161 34.2507 39.979 34.4474 40.0354 34.6452C40.2627 35.4348 40.4484 36.2258 40.6238 37.0189C40.8133 37.8921 40.9349 38.5863 41.0144 39.4201L41.0165 39.44C41.0455 39.6866 40.8675 39.9099 40.6187 39.9384C40.5706 39.9439 40.5214 39.9411 40.4759 39.9321C39.9008 39.8159 39.2822 39.7339 38.6779 39.6781C38.0695 39.6242 37.4579 39.5956 36.8477 39.6045C35.6308 39.6237 34.4031 39.7663 33.2681 40.1833C32.9851 40.2923 32.7098 40.4024 32.4612 40.5597C32.2111 40.7141 31.9716 40.8912 31.7639 41.1032C31.3432 41.5221 31.0178 42.0406 30.788 42.6011C30.5536 43.161 30.4094 43.7608 30.325 44.3683C30.2426 44.9764 30.2144 45.5962 30.2592 46.2111C30.26 46.2188 30.2547 46.226 30.2467 46.227C30.2391 46.2278 30.2322 46.2221 30.2309 46.2148C30.1488 45.5991 30.1398 44.9752 30.186 44.3537C30.2347 43.7324 30.3445 43.1108 30.5531 42.5133C30.7576 41.916 31.0675 41.3425 31.5002 40.8574C31.7133 40.6125 31.9653 40.4007 32.2328 40.2129C32.5006 40.021 32.7995 39.8801 33.0895 39.7487C34.2717 39.2338 35.5504 39.0107 36.8179 38.9155C37.4534 38.8686 38.0906 38.8611 38.7268 38.8797C39.3666 38.9016 39.9903 38.9453 40.6442 39.0376L40.106 39.5496C39.955 38.7761 39.8509 37.943 39.7125 37.1812C39.6003 36.3888 39.4762 35.5973 39.3156 34.8226C39.2306 34.4419 39.1549 34.0398 39.0238 33.714C38.8889 33.3797 38.6843 33.0765 38.4111 32.8436C37.8721 32.3708 37.044 32.2069 36.3181 32.4561C36.2462 32.4809 36.1676 32.4432 36.1427 32.372C36.1193 32.3057 36.1518 32.2331 36.2142 32.2035Z" fill="#1D5632"/>
<path d="M38.039 22.106C37.6681 20.9506 36.9516 20.0318 36.551 20.0417C36.1505 20.0516 35.0728 20.8407 34.8856 22.0492C34.6583 20.6534 33.4404 15.8047 33.3598 15.262C33.3598 15.262 30.1484 15.3069 29.5491 17.2292C28.4196 18.2623 25.2673 20.3449 20.4632 21.822C20.9247 20.2793 21.3138 18.4037 21.3138 18.4037C21.3138 18.4037 15.6546 16.8775 12.4676 19.4189L12.9841 25.9577C12.9841 25.9577 11.9762 24.0341 11.0597 24.0177C10.143 24.0016 9.69295 25.6149 9.6973 26.5388C9.70146 27.4628 10.7099 29.2777 11.5979 29.6793C12.4859 30.081 13.158 29.1574 13.158 29.1574C13.158 29.1574 13.4056 31.2389 13.525 32.87C13.6443 34.5008 14.022 36.7067 15.3848 37.6669C16.7476 38.6271 20.6586 39.6322 21.6231 40.1665C22.2598 40.5195 23.4227 41.0788 24.3487 41.4379C24.3448 41.4513 24.3427 41.4653 24.3386 41.4788C25.1164 41.8493 25.3753 42.0245 25.7619 42.0293C26.2272 42.0347 26.8392 42.4569 27.1862 42.6961C27.5332 42.9355 28.1629 43.3545 28.1629 43.3545C28.1629 43.3545 28.4621 42.0833 28.6713 41.4831L29.0609 41.2775C29.0609 41.2775 30.6204 39.6315 31.2783 39.1815C31.9365 38.7315 35.5095 36.0919 36.2674 35.2453C37.025 34.3986 37.5166 32.815 37.6736 31.6475C37.8308 30.4798 36.6083 27.0133 36.4643 26.6917C36.3208 26.3702 36.1439 25.5102 36.1439 25.5102C36.1439 25.5102 36.8585 26.1936 37.5208 25.4346C38.1833 24.6757 38.4098 23.2615 38.039 22.106Z" fill="#FFBE85"/>
<path d="M28.2457 46.4407C27.9906 45.8759 27.5824 45.392 27.1151 45.0013C26.6424 44.6126 26.0999 44.3209 25.5269 44.1263C24.3769 43.7367 23.124 43.7384 21.936 43.9189C20.7402 44.1086 19.5867 44.5316 18.4984 45.0692C17.9548 45.3414 17.4272 45.6448 16.9089 45.962C16.3957 46.2786 15.8746 46.6183 15.4001 46.9552L15.3602 46.9836C15.1611 47.1249 14.8842 47.0794 14.7417 46.882C14.7195 46.8511 14.7012 46.8164 14.688 46.7828C14.5373 46.4291 14.415 46.0881 14.2942 45.7364C14.1744 45.3872 14.0662 45.0337 13.9697 44.677C13.7765 43.9637 13.6152 43.2386 13.5282 42.4976C13.4835 42.1277 13.4544 41.7541 13.4481 41.3779C13.4461 41.0019 13.4494 40.622 13.5243 40.2437C13.5921 39.8658 13.7141 39.4777 13.9292 39.142C14.1382 38.8025 14.4354 38.5338 14.7577 38.3403C14.8 38.3148 14.8553 38.3283 14.8808 38.3704C14.9018 38.4046 14.8967 38.4471 14.8713 38.4755L14.87 38.477C14.6315 38.7429 14.4364 39.0284 14.3198 39.3383C14.2044 39.6493 14.156 39.976 14.1393 40.3147C14.1052 40.996 14.1622 41.6953 14.2915 42.3845C14.4217 43.0738 14.5965 43.7592 14.8085 44.4349C15.0233 45.1063 15.2634 45.7864 15.531 46.4234V46.4236L14.8189 46.2509C15.3274 45.818 15.8493 45.4662 16.4054 45.1375C16.958 44.8107 17.5359 44.5277 18.1273 44.275C19.3104 43.7765 20.5602 43.4005 21.8519 43.2737C22.4969 43.2078 23.1484 43.208 23.7899 43.2921C24.4321 43.3701 25.0674 43.5283 25.6614 43.7843C26.8482 44.289 27.8495 45.248 28.2684 46.4333C28.2703 46.4393 28.2671 46.4461 28.2608 46.4483C28.2551 46.4502 28.2486 46.4475 28.2461 46.442L28.2457 46.4407Z" fill="#1D5632"/>
<path d="M25.4956 42.041C25.7625 42.0816 26.0248 42.1449 26.2846 42.2179C26.5437 42.293 26.8011 42.3769 27.0521 42.4809C27.3038 42.5826 27.5516 42.6996 27.789 42.8433C28.0258 42.988 28.2593 43.1517 28.4509 43.3899L28.1027 43.5088C28.1012 43.3762 28.1079 43.2548 28.1233 43.1296C28.1377 43.0054 28.1629 42.8824 28.1914 42.7608C28.2535 42.5185 28.3444 42.2803 28.4931 42.0682C28.5081 42.1977 28.5068 42.3199 28.5115 42.4424L28.5117 42.8031L28.5033 43.1584L28.4913 43.5061L28.4912 43.5148C28.4875 43.6209 28.3976 43.7042 28.2906 43.7006C28.2304 43.6985 28.1772 43.669 28.1432 43.625C28.0039 43.4445 27.8033 43.2856 27.596 43.1391C27.3842 42.9966 27.1592 42.8646 26.9285 42.7392C26.6967 42.6169 26.4615 42.4954 26.2213 42.3817L25.4956 42.041Z" fill="#1D5632"/>
<path d="M18.6303 25.0526C18.4285 25.2604 18.2613 26.4899 18.881 27.152C19.2648 27.4892 20.1356 27.2229 20.3147 26.9766C20.494 26.7304 20.5128 25.9478 20.1124 24.7246C19.0365 24.516 19.0061 24.6661 18.6303 25.0526Z" fill="white"/>
<path d="M28.3103 24.4442C28.3103 24.4442 28.2921 23.8852 28.573 23.4775C28.854 23.0698 29.7425 23.3627 30.0672 23.6732C30.392 23.9838 30.7124 25.1652 30.3115 25.846L29.3169 26.0236C29.3169 26.0236 28.4755 25.7959 28.3103 24.4442Z" fill="white"/>
<path d="M22.21 34.4061C22.21 34.4061 23.1181 36.11 25.8956 35.9913C28.6727 35.8726 29.4699 34.0316 29.7721 33.1943C28.7311 34.0411 25.8706 35.669 22.21 34.4061Z" fill="white"/>
<path d="M21.3129 18.4037C21.3129 18.4037 21.2196 19.851 20.4624 21.8218C22.0269 21.5528 25.3389 20.1155 27.0181 18.9762C28.6968 17.8368 29.593 17.1675 29.593 17.1675C29.593 17.1675 24.5488 17.4779 21.3129 18.4037Z" fill="#D99A29"/>
<path d="M15.083 33.7984C15.083 33.7984 16.0122 35.4627 17.3016 35.0748C18.5911 34.6867 19.4489 33.4432 20.6689 33.8642C21.889 34.2852 23.3334 34.9603 25.75 34.6456C28.166 34.3311 29.9524 32.5035 31.1276 32.424C32.3029 32.3444 33.3045 33.1086 34.3884 32.9169C35.4723 32.7249 35.9207 31.4383 35.8669 30.3229C35.244 30.8759 34.7105 31.9768 33.0664 30.3001C31.4227 28.6235 30.9474 28.7358 29.3741 29.5138C27.8007 30.2918 25.6808 31.8645 22.7951 31.0939C19.9093 30.3234 19.1926 30.0758 18.4316 31.0135C17.6703 31.9515 16.8797 34.6167 15.083 33.7984Z" fill="#D99A29"/>
<path d="M12.9841 25.9574C12.9841 25.9574 11.9762 24.0339 11.0597 24.0177C10.143 24.0013 9.69295 25.6146 9.6973 26.5385C9.70146 27.4625 10.7099 29.2774 11.5979 29.6791C12.486 30.0807 13.3591 29.2872 13.3591 29.2872L12.9841 25.9574Z" fill="#FFBE85"/>
<path d="M10.3838 23.745C10.3838 23.745 11.5922 23.2523 12.804 25.6418C13.0828 24.1557 12.6854 20.874 12.6854 20.874C12.6854 20.874 11.0057 22.1767 10.3838 23.745Z" fill="#D99A29"/>
<path d="M12.9985 20.8947L13.5812 28.3684C13.6814 29.611 13.7767 30.8631 13.9002 32.0901C14.0262 33.3119 14.2156 34.5246 14.7085 35.573C14.9507 36.0971 15.2741 36.5727 15.6765 36.9803C16.0764 37.3944 16.5589 37.7144 17.0812 38.0199C18.126 38.6171 19.284 39.0394 20.4742 39.4196C21.0693 39.613 21.6722 39.8023 22.2738 40.0194C22.8746 40.2369 23.4787 40.4769 24.0564 40.7971L24.469 41.0302C24.5964 41.1069 24.7304 41.1696 24.864 41.2336C25.1336 41.3552 25.4111 41.4625 25.6986 41.5344C25.9849 41.6094 26.2784 41.6608 26.5735 41.6816C26.863 41.7023 27.1785 41.6956 27.4363 41.6502L27.4588 41.6463C27.6044 41.6207 27.7431 41.7169 27.7689 41.8611C27.7938 42.0016 27.7022 42.1356 27.5635 42.1664C27.2035 42.2456 26.8844 42.2585 26.5454 42.2518C26.2117 42.2422 25.8797 42.1987 25.5542 42.1278C25.2271 42.0598 24.9103 41.9534 24.6013 41.8294C24.4484 41.7639 24.2948 41.6991 24.1485 41.6198L23.7297 41.4082C22.6508 40.8827 21.4261 40.6016 20.217 40.2349C19.0039 39.8766 17.7723 39.4587 16.6169 38.8298C16.0503 38.5106 15.4768 38.1279 14.9998 37.6391C14.5185 37.1554 14.1266 36.5807 13.8431 35.9697C13.2789 34.7355 13.1208 33.428 13.0065 32.1729C12.9077 30.9103 12.8636 29.6668 12.8027 28.4154C12.7016 25.9162 12.5977 23.419 12.5309 20.9191C12.5272 20.7909 12.629 20.684 12.7583 20.6803C12.8834 20.6768 12.9885 20.7723 12.9985 20.8947Z" fill="#1D5632"/>
<path d="M36.143 25.5101C36.143 25.5101 36.8577 26.1933 37.5199 25.4344C38.1826 24.6755 38.4089 23.2613 38.0381 22.1059C37.6672 20.9505 36.9507 20.0316 36.5502 20.0416C36.1496 20.0515 35.0719 20.8406 34.8848 22.0491L36.143 25.5101Z" fill="#FFBE85"/>
<path d="M34.3347 19.2185C34.4822 19.8217 34.6477 20.4217 34.8192 21.0202C35.1692 22.2152 35.5671 23.3975 35.9782 24.5746C36.1914 25.161 36.409 25.7454 36.6418 26.3246C36.8738 26.9014 37.1173 27.4851 37.3361 28.0812C37.5533 28.6781 37.7588 29.2877 37.9053 29.9246C38.0505 30.5608 38.1347 31.2274 38.1086 31.9089C38.0816 32.5888 37.9303 33.2802 37.6483 33.9119C37.3683 34.5421 36.9589 35.1129 36.5167 35.5949C35.6336 36.5752 34.5899 37.3591 33.5481 38.0749C32.5111 38.797 31.4447 39.4537 30.5872 40.2905C30.3833 40.4867 30.1525 40.7519 29.8996 40.9631C29.6493 41.1815 29.3813 41.3818 29.0933 41.5502C28.8065 41.7206 28.5045 41.8658 28.1891 41.9779C27.868 42.0882 27.5599 42.1739 27.1905 42.2059C27.0446 42.2182 26.9159 42.1111 26.9034 41.9661C26.8911 41.8262 26.9917 41.7025 27.1301 41.683L27.1546 41.6795C27.4118 41.6438 27.7134 41.5517 27.98 41.4411C28.2522 41.3282 28.5128 41.1862 28.7581 41.0229C29.0055 40.8629 29.2357 40.6767 29.4497 40.4737C29.6709 40.2725 29.8426 40.0541 30.079 39.804C30.985 38.8469 32.0515 38.1367 33.0401 37.3822C33.5375 37.0072 34.0222 36.6265 34.479 36.2234C34.9331 35.8185 35.3563 35.3886 35.7355 34.9294C36.5198 34.0373 36.9734 32.9932 37.0354 31.8557C37.1006 30.7191 36.8446 29.5235 36.5234 28.3384C36.1911 27.1553 35.8053 25.9478 35.4326 24.7547C35.0515 23.5605 34.693 22.3589 34.3536 21.151C34.1828 20.5473 34.0186 19.9415 33.8708 19.3302C33.7156 18.7169 33.4554 17.3851 33.3459 16.7388C33.3219 16.5982 33.4175 16.4649 33.5595 16.4415C33.701 16.4179 33.8467 16.5821 33.8703 16.7229C33.8711 16.7264 34.197 18.6175 34.3347 19.2185Z" fill="#1D5632"/>
<path d="M23.4893 37.3197C24.0491 37.4372 24.5718 37.5213 25.0843 37.5593C25.5956 37.5967 26.0909 37.5739 26.567 37.4814C27.0406 37.3855 27.5111 37.244 27.9558 36.9993C28.1944 36.9031 28.3969 36.7423 28.6356 36.6168C28.8662 36.4786 29.0735 36.3066 29.3333 36.1658C29.2246 36.4251 29.0936 36.6825 28.9314 36.9203C28.7503 37.1407 28.5765 37.3831 28.3379 37.5585C27.8977 37.9545 27.3209 38.2107 26.7275 38.3255C26.1312 38.4405 25.5117 38.3963 24.9515 38.2197C24.3941 38.0385 23.8744 37.7484 23.4893 37.3197Z" fill="#1D5632"/>
<path d="M22.5068 30.223C22.6443 30.0987 22.7755 30.0335 22.933 29.9825C23.0869 29.933 23.2513 29.9199 23.4114 29.9293C23.5725 29.9378 23.7289 29.9762 23.8744 30.0295C23.9486 30.0549 24.0201 30.0846 24.0875 30.1198C24.1645 30.158 24.2075 30.1799 24.2567 30.2008C24.6571 30.3657 25.1314 30.4132 25.5648 30.343C26 30.2742 26.3947 30.0985 26.6684 29.8095C26.8125 29.6583 26.9119 29.5027 26.9466 29.3373C26.9808 29.17 26.953 28.9635 26.8817 28.7422C26.7334 28.2992 26.4769 27.8361 26.2425 27.3724C26.1249 27.138 26.0069 26.9096 25.8945 26.6496C25.7926 26.3924 25.7052 26.1302 25.6551 25.8611C25.5459 25.3245 25.5453 24.777 25.6194 24.2486C25.6956 23.7199 25.8504 23.2048 26.0948 22.7358C26.1056 22.7146 26.1317 22.7062 26.153 22.7173C26.1727 22.7273 26.1808 22.7509 26.1738 22.7708C25.8283 23.7404 25.7773 24.8102 26.0706 25.7589C26.1387 25.9971 26.238 26.2237 26.348 26.4419C26.4612 26.6519 26.6039 26.8755 26.7417 27.0953C27.0122 27.5424 27.3045 27.9732 27.5331 28.5034C27.6438 28.7673 27.7377 29.0834 27.7049 29.436C27.6717 29.79 27.5052 30.1078 27.3107 30.3505C27.109 30.6028 26.8472 30.8073 26.5621 30.9443C26.2771 31.0832 25.9718 31.1599 25.6691 31.1895C25.0636 31.2417 24.4507 31.1295 23.9242 30.802C23.8583 30.7604 23.7912 30.7115 23.7539 30.6865C23.7092 30.6534 23.6645 30.6229 23.6178 30.5973C23.5256 30.541 23.4289 30.5016 23.3305 30.4729C23.2318 30.4429 23.1297 30.4316 23.0267 30.4351C22.9282 30.4382 22.8086 30.468 22.7345 30.498L22.6926 30.5149C22.6021 30.5513 22.4991 30.5084 22.4623 30.4186C22.4336 30.3488 22.4539 30.2711 22.5068 30.223Z" fill="#1D5632"/>
<path d="M27.0491 29.7346C27.0279 29.6199 27.0427 29.5268 27.0713 29.4443C27.0983 29.3592 27.1435 29.2881 27.1993 29.2279C27.3081 29.0968 27.502 29.0946 27.6628 29.071C27.8268 29.0441 28.0003 29.0586 28.1548 29.1068C28.3101 29.1559 28.4416 29.2468 28.5444 29.3488C28.5575 29.3619 28.5574 29.3831 28.5443 29.3963C28.5373 29.4033 28.5279 29.4066 28.5189 29.4061L28.5143 29.4059C28.3717 29.3992 28.2471 29.3875 28.1298 29.428C28.0154 29.4591 27.9149 29.502 27.8225 29.5616C27.7269 29.6224 27.6779 29.7435 27.5628 29.7621C27.4475 29.7888 27.3159 29.8033 27.0982 29.7768L27.0935 29.7762C27.0706 29.7733 27.0531 29.7559 27.0491 29.7346Z" fill="#1D5632"/>
<path d="M15.0007 33.5854C15.4492 33.7901 15.9656 33.8542 16.3264 33.5914C16.6914 33.3384 16.9327 32.9034 17.1559 32.4686C17.383 32.0296 17.591 31.5656 17.8802 31.1137C18.0253 30.8883 18.1962 30.6662 18.4181 30.4713C18.5307 30.3743 18.6465 30.2859 18.8009 30.21C18.957 30.1318 19.107 30.0968 19.2596 30.0682C19.8665 29.9812 20.3912 30.0965 20.897 30.1951C21.4024 30.3009 21.8893 30.4178 22.3755 30.509C23.3429 30.6989 24.3108 30.7972 25.2503 30.6617C26.2004 30.541 27.1151 30.2237 27.9811 29.7765C28.4189 29.5576 28.8462 29.3058 29.3002 29.0573C29.7527 28.8154 30.2484 28.5494 30.8622 28.4966C31.1623 28.4746 31.4841 28.5156 31.7698 28.6425C32.0414 28.7613 32.2794 28.9271 32.483 29.1108C32.8926 29.4785 33.1938 29.8989 33.5149 30.2633C33.828 30.6295 34.1794 30.9473 34.6087 30.8986C34.8228 30.8817 35.0431 30.7843 35.2488 30.6609C35.4566 30.5372 35.6532 30.3841 35.8412 30.2203L35.8428 30.219C35.8743 30.1916 35.9222 30.1947 35.9499 30.2259C35.9754 30.2547 35.9748 30.2972 35.9497 30.3253C35.6151 30.7027 35.2432 31.1047 34.6641 31.2435C34.3756 31.3123 34.0503 31.2442 33.7995 31.106C33.5434 30.9699 33.3379 30.7885 33.1474 30.6091C32.7735 30.2447 32.4505 29.865 32.0819 29.5856C31.8983 29.4471 31.7107 29.3297 31.5131 29.2579C31.3316 29.1896 31.134 29.1761 30.9323 29.2007C30.53 29.2562 30.1102 29.484 29.6862 29.7302C29.2617 29.9806 28.8272 30.2566 28.3685 30.5056C27.4491 31.0012 26.4261 31.3696 25.3659 31.5121C24.2934 31.6511 23.2159 31.5335 22.2073 31.308C21.7019 31.1953 21.2088 31.0594 20.7268 30.9418C20.2489 30.8305 19.7644 30.7163 19.3596 30.7558C19.1542 30.7783 19.0193 30.8328 18.8418 30.9715C18.6765 31.1014 18.5243 31.2717 18.3812 31.4582C18.0952 31.8344 17.8563 32.2754 17.5835 32.7092C17.4452 32.9256 17.2997 33.1429 17.1274 33.3484C16.9551 33.5518 16.7544 33.7504 16.4979 33.8817C16.2445 34.0162 15.9398 34.0605 15.6686 34.0102C15.3954 33.9613 15.1542 33.8443 14.9339 33.7099C14.9005 33.6894 14.8898 33.6462 14.9104 33.6129C14.9293 33.582 14.9683 33.571 15.0007 33.5854Z" fill="#1D5632"/>
<path d="M35.9646 30.2765C35.9599 30.7837 35.9309 31.2991 35.7774 31.8041C35.7012 32.0555 35.5944 32.3061 35.428 32.5311C35.2654 32.758 35.0274 32.9452 34.7583 33.0541C34.4886 33.1658 34.1997 33.191 33.9258 33.1873C33.6516 33.1787 33.3859 33.137 33.1277 33.083C32.8699 33.0284 32.6186 32.9609 32.3719 32.8904C32.1264 32.826 31.8702 32.7275 31.6878 32.7196C31.2778 32.6806 30.8606 32.8731 30.4417 33.1134C30.0234 33.3565 29.6028 33.6476 29.1582 33.9151C28.2749 34.4599 27.2702 34.891 26.2167 35.0894C25.688 35.1957 25.1361 35.2308 24.5987 35.2005C24.0595 35.1739 23.5318 35.0756 23.0221 34.9512C22.5102 34.8308 22.0203 34.6627 21.5401 34.5106C21.063 34.3612 20.5863 34.2052 20.1538 34.1757C20.0483 34.1721 19.9448 34.1725 19.8521 34.1895C19.8069 34.1982 19.7593 34.2083 19.7208 34.2228L19.6614 34.2438L19.5826 34.2835C19.368 34.3915 19.1465 34.5152 18.9238 34.638C18.4768 34.881 18.0103 35.1439 17.4622 35.2683C17.1882 35.3226 16.8932 35.338 16.6126 35.2696C16.3315 35.2065 16.0763 35.072 15.8638 34.9038C15.4373 34.563 15.1482 34.1227 14.9043 33.6757C14.8852 33.6409 14.8984 33.5972 14.9335 33.5783C14.9658 33.5611 15.0055 33.5704 15.0265 33.599L15.0273 33.6002C15.3239 34.0011 15.6512 34.3889 16.0531 34.6405C16.4494 34.9057 16.9125 34.9563 17.3463 34.8155C17.7854 34.6814 18.2013 34.416 18.6228 34.1429C18.835 34.0055 19.0465 33.8657 19.2757 33.7285L19.3631 33.6763L19.4788 33.623C19.5572 33.5889 19.6339 33.5668 19.7114 33.5467C19.8673 33.5082 20.019 33.4979 20.1674 33.4943C20.7537 33.5014 21.2605 33.644 21.7578 33.7674C22.253 33.897 22.7358 34.0217 23.2145 34.1264C24.1733 34.3293 25.1277 34.413 26.0643 34.2528C27.0169 34.1068 27.9182 33.7503 28.782 33.2717C29.2179 33.0363 29.6438 32.768 30.1141 32.5217C30.3499 32.4004 30.5981 32.2835 30.8756 32.2058C31.151 32.1291 31.4581 32.0883 31.7586 32.1363C31.9068 32.1539 32.0668 32.2049 32.1799 32.2474L32.5382 32.3747C32.775 32.458 33.0103 32.5365 33.2459 32.6011C33.7136 32.7299 34.1993 32.8084 34.6188 32.6786C35.0422 32.5576 35.3427 32.1635 35.5139 31.7143C35.6031 31.4901 35.6661 31.2512 35.714 31.0085C35.7667 30.7664 35.7979 30.5183 35.8269 30.2697V30.268C35.8314 30.2304 35.8654 30.2035 35.9036 30.2077C35.9388 30.2118 35.9646 30.2421 35.9646 30.2765Z" fill="#1D5632"/>
<path d="M21.3666 33.8528C22.0017 34.453 22.7646 34.9532 23.5621 35.2675C24.3647 35.5824 25.2249 35.6945 26.0725 35.593C26.9209 35.4956 27.7315 35.1832 28.427 34.6714C29.118 34.1606 29.7135 33.4668 30.1478 32.6928L30.1548 32.6805C30.1934 32.6113 30.2811 32.5867 30.3508 32.6249C30.4102 32.6578 30.4373 32.7261 30.4197 32.7883C30.158 33.7212 29.6183 34.5565 28.8803 35.2203C28.5117 35.552 28.0845 35.8232 27.6277 36.0333C27.1693 36.241 26.6768 36.3699 26.1814 36.4425C25.684 36.5052 25.1747 36.5011 24.6767 36.4275C24.1803 36.344 23.6946 36.2013 23.2466 35.985C22.3477 35.5538 21.5826 34.9214 21.033 34.1046C20.9687 34.0091 20.9942 33.8801 21.0907 33.8163C21.1735 33.7613 21.282 33.773 21.3515 33.8386L21.3666 33.8528Z" fill="#1D5632"/>
<path d="M12.6895 26.4886C12.502 26.0701 12.2784 25.6434 12.02 25.2741C11.8884 25.0905 11.7508 24.9164 11.5993 24.778C11.4485 24.6407 11.2862 24.5446 11.1497 24.5218C10.5259 24.3294 10.1574 25.3556 10.1494 26.2129C10.1315 26.6557 10.1832 27.1093 10.3108 27.5228C10.434 27.9332 10.6545 28.3417 10.9252 28.7012C11.1933 29.06 11.5243 29.3955 11.8988 29.5773C12.0845 29.666 12.2762 29.7063 12.4364 29.6592C12.5996 29.6208 12.7461 29.4824 12.8555 29.2977L12.86 29.29C12.9136 29.1997 13.0305 29.1696 13.1216 29.2228C13.2076 29.2729 13.2392 29.3799 13.1972 29.4676C13.1377 29.5912 13.0698 29.7156 12.9688 29.8269C12.8684 29.9374 12.7384 30.0345 12.5882 30.0928C12.2804 30.212 11.9563 30.1559 11.6961 30.0582C11.1676 29.8508 10.7689 29.4928 10.4201 29.1056C10.0793 28.7087 9.79554 28.2669 9.60276 27.7577C9.42537 27.2481 9.34929 26.7246 9.3501 26.1975C9.36259 25.6711 9.4355 25.1361 9.69051 24.6104C9.8253 24.3539 10.0191 24.0901 10.3218 23.9102C10.4727 23.8227 10.6462 23.7642 10.8209 23.7426C10.9961 23.7231 11.1643 23.7413 11.3207 23.7756C11.6654 23.8632 11.9138 24.0652 12.1111 24.2646C12.3057 24.47 12.4624 24.6873 12.5927 24.9136C12.8545 25.3672 13.0441 25.8273 13.1872 26.3222C13.2271 26.4606 13.1465 26.6049 13.007 26.6445C12.8796 26.6809 12.7469 26.617 12.6946 26.4998L12.6895 26.4886Z" fill="#1D5632"/>
<path d="M34.8106 22.5257C34.7981 22.0468 34.8429 21.589 34.9612 21.114C35.0246 20.8785 35.1081 20.6416 35.2429 20.4077C35.3748 20.1794 35.5756 19.9329 35.8689 19.7938C36.0132 19.7219 36.1856 19.6729 36.3588 19.6728C36.5312 19.6699 36.698 19.7061 36.8443 19.7634C37.1324 19.8845 37.3528 20.0626 37.5272 20.2567C37.8781 20.646 38.1068 21.0804 38.2839 21.531C38.4521 21.9847 38.568 22.456 38.5903 22.953C38.6017 23.4499 38.5283 23.9257 38.3882 24.3861C38.2388 24.8417 38.0422 25.2927 37.6728 25.6706C37.5782 25.7631 37.4709 25.8497 37.3429 25.9173C37.2146 25.9838 37.0627 26.0286 36.9076 26.027C36.7527 26.0261 36.6056 25.98 36.4822 25.9147C36.3573 25.8495 36.2598 25.7618 36.1676 25.6743C35.982 25.5752 35.87 25.2474 35.9431 25.1717C36.0876 25.0549 36.3427 25.3288 36.4189 25.3891L36.4271 25.3956C36.5815 25.5186 36.752 25.5904 36.892 25.5692C37.0319 25.5572 37.1712 25.459 37.2899 25.3164C37.5284 25.0273 37.6761 24.6215 37.7643 24.2209C37.8556 23.8181 37.8879 23.3947 37.8495 22.999C37.8135 22.6032 37.7024 22.1981 37.5438 21.8201C37.3868 21.4433 37.1843 21.075 36.9276 20.8014C36.8002 20.6655 36.6657 20.5518 36.5384 20.4955C36.4104 20.4453 36.3186 20.4371 36.205 20.4888C35.9679 20.5798 35.7498 20.9299 35.619 21.3124C35.4803 21.6946 35.3925 22.1278 35.3354 22.5408L35.3338 22.5543C35.3139 22.6971 35.1814 22.7968 35.0377 22.7773C34.9082 22.7598 34.8138 22.6513 34.8106 22.5257Z" fill="#1D5632"/>
<path d="M22.0072 16.8212C21.8027 17.6971 21.5844 18.5639 21.346 19.429C21.2261 19.8613 21.103 20.2927 20.9685 20.7214C20.8342 21.15 20.698 21.5784 20.5339 22.0001V22.0003L20.3689 21.835C21.2572 21.46 22.1476 21.0869 23.0261 20.6955C23.9066 20.3083 24.7714 19.8912 25.6141 19.447C26.0354 19.2216 26.4563 18.9989 26.8646 18.7555C27.2757 18.5176 27.6798 18.2694 28.0689 18.0005C28.8498 17.4665 29.5778 16.8635 30.2662 16.2017C30.3424 16.1284 30.4639 16.1303 30.5376 16.2059C30.606 16.2757 30.6092 16.3844 30.549 16.4582C29.9337 17.2149 29.2145 17.902 28.4225 18.4872C27.6314 19.0742 26.7853 19.5803 25.9102 20.0139C25.0336 20.4527 24.127 20.8138 23.2196 21.1608C22.3087 21.5007 21.3915 21.8158 20.4538 22.0789L20.4524 22.0794C20.3816 22.0991 20.3081 22.0584 20.2884 21.9882C20.281 21.9628 20.2819 21.9372 20.2888 21.9136H20.289C20.558 21.0725 20.7487 20.2014 20.9262 19.3306C21.1028 18.4595 21.26 17.581 21.4013 16.7061L21.4018 16.7034C21.429 16.5366 21.587 16.4231 21.7555 16.4497C21.9236 16.4766 22.0382 16.6334 22.0113 16.8004C22.0101 16.8072 22.0089 16.8144 22.0072 16.8212Z" fill="#1D5632"/>
<path d="M7.88031 16.0137C8.52666 18.1936 11.0965 19.5674 11.0965 19.5674L12.4465 16.2227C12.4465 16.2227 11.6656 14.4154 10.2333 13.558C8.80113 12.7006 7.29421 12.9723 7.24726 12.9647C7.20049 12.9572 7.23396 13.8339 7.88031 16.0137Z" fill="#A93439"/>
<path d="M11.5144 19.8051C10.8002 19.5883 10.1649 19.2247 9.59005 18.7696C9.01905 18.3123 8.52151 17.7607 8.1233 17.1423C8.02623 16.9868 7.94147 16.8237 7.8501 16.6643C7.80713 16.5831 7.75557 16.5055 7.72002 16.4211L7.61056 16.1687C7.54136 15.9992 7.45723 15.8335 7.40033 15.6594L7.23569 15.1345C7.21027 15.0465 7.17652 14.96 7.15798 14.8705L7.10262 14.6021L6.99261 14.0635C6.9444 13.7022 6.90061 13.3385 6.89311 12.9736L6.89265 12.9547C6.88876 12.7713 7.03468 12.6193 7.21904 12.6136H7.22004C7.40847 12.6073 7.56325 12.6166 7.73169 12.6289C7.89651 12.6417 8.05989 12.6617 8.22208 12.6879C8.54639 12.7399 8.86644 12.8153 9.17845 12.9163C9.80245 13.1174 10.3945 13.4261 10.9061 13.8351C11.4171 14.2448 11.8383 14.7577 12.1471 15.3218C12.4538 15.8881 12.6583 16.498 12.7798 17.1169C12.7947 17.1923 12.745 17.2657 12.6688 17.2805C12.5954 17.2945 12.524 17.2483 12.5056 17.1774C12.3547 16.5886 12.1263 16.0231 11.8122 15.5147C11.4961 15.0081 11.0867 14.5663 10.6064 14.2237C10.1252 13.8825 9.58001 13.6358 9.00802 13.4867C8.72225 13.4118 8.42987 13.3602 8.13642 13.3299C7.84766 13.2992 7.53575 13.2912 7.2725 13.3121H7.27232L7.59826 12.9521C7.65118 13.2906 7.64322 13.6333 7.67569 13.9732L7.75023 14.4781L7.78714 14.7312C7.79954 14.8156 7.82667 14.8961 7.84558 14.9789L7.9706 15.4738C8.01393 15.6383 8.08368 15.7934 8.13877 15.9545L8.22633 16.1943C8.25474 16.2747 8.2988 16.3478 8.33417 16.425C8.41061 16.5766 8.48035 16.7327 8.56195 16.8819C8.89856 17.4742 9.33187 18.0131 9.84352 18.4722C10.096 18.7059 10.3771 18.9076 10.6657 19.0978C10.9586 19.2759 11.2718 19.4436 11.5858 19.5564L11.5964 19.5603C11.6641 19.5846 11.6988 19.6586 11.6745 19.7255C11.6508 19.7903 11.5799 19.8249 11.5144 19.8051Z" fill="#1D5632"/>
<path d="M7.21826 12.7883C7.21826 12.7883 9.04252 15.7174 11.6504 17.9653C11.2386 17.4557 9.16718 14.8776 7.21826 12.7883Z" fill="#1D5632"/>
<path d="M34.4624 19.505L34.4628 19.5061C34.4628 19.5061 34.4632 19.4927 34.4649 19.4712C34.4637 19.4857 34.4628 19.4977 34.4624 19.505Z" fill="#1D5632"/>
<path d="M41.345 14.1435C41.3258 13.588 41.2512 13.054 40.6177 12.8941C39.6176 12.6414 34.028 14.8667 34.028 14.8667C34.028 14.8667 30.41 6.52102 29.3506 5.46577C28.782 5.02061 26.7866 3.59988 25.9907 3.65462C25.1945 3.70926 22.8925 4.88798 22.2009 5.16346C21.5277 5.43167 20.0137 5.97957 20.0137 5.97957C20.0137 5.97957 15.0472 5.92905 14.5416 6.03745C14.0358 6.14585 12.9281 7.79898 12.6296 8.50266C11.5218 13.5006 11.025 19.4434 11.025 19.4434C11.025 19.4434 7.90321 19.6374 6.584 19.77C5.33916 19.8949 4.00747 20.1316 3.68814 20.5382C3.37758 20.9332 3.30304 21.8086 3.76611 23.0126C2.92518 20.6547 4.99495 20.5869 6.98077 20.4304C8.93113 20.3054 11.1129 20.9124 12.4936 20.8497C13.9408 20.7839 20.2012 18.7689 23.351 18.2641C26.6588 17.734 31.7305 17.428 33.4865 16.8136C35.1285 16.2391 38.885 14.3028 39.8445 14.049C40.7156 13.8184 41.3126 13.4413 41.3442 14.1528" fill="#1D5632"/>
<path d="M11.0859 19.5061C11.7764 18.759 12.5088 18.0632 13.2649 17.3801C13.4573 17.2122 13.6484 17.0443 13.8571 16.8809C13.8849 16.86 13.9048 16.8416 13.9394 16.8187L14.0499 16.749C14.1163 16.7121 14.1784 16.6792 14.2413 16.6474C14.3634 16.5875 14.4843 16.5318 14.6036 16.4798C15.0832 16.2752 15.559 16.0938 16.0403 15.9231C17.9617 15.243 19.9097 14.6776 21.8844 14.1913C22.8732 13.9527 23.8657 13.73 24.881 13.5575C25.3887 13.479 25.9054 13.3872 26.4543 13.3793C26.7206 13.3738 26.9864 13.3668 27.2486 13.3833L27.6422 13.4036L28.0319 13.4405C29.0692 13.5465 30.0797 13.755 31.0654 14.0322C32.0486 14.3168 33.0179 14.6393 33.9424 15.0701C32.9389 14.897 31.9439 14.7313 30.9466 14.6139C29.9519 14.4898 28.9575 14.3989 27.976 14.3883L27.609 14.3846L27.2445 14.3968C27.0008 14.3982 26.762 14.4208 26.5233 14.4412C26.0616 14.4803 25.5817 14.5794 25.0962 14.6803C24.1259 14.8856 23.149 15.1207 22.175 15.3605C20.2256 15.8415 18.2699 16.3289 16.3297 16.8385C15.8471 16.9699 15.3602 17.0959 14.8927 17.2422C14.6591 17.3159 14.4226 17.3843 14.2708 17.4783C14.0633 17.5996 13.8506 17.734 13.641 17.8698C12.7927 18.4075 11.9562 18.9781 11.0859 19.5061Z" fill="#A93439"/>
<path d="M13.7612 40.2364C13.773 40.2347 13.7858 40.2333 13.7981 40.2319C13.8977 39.8937 14.0535 39.5695 14.2479 39.2619C14.181 39.2367 14.1082 39.2245 14.0324 39.2309C13.8653 39.2451 13.7437 39.2645 13.6072 39.2914C13.4739 39.3154 13.3449 39.349 13.2154 39.3812C12.9589 39.4521 12.7081 39.5368 12.4644 39.6379C11.9777 39.8401 11.5154 40.1002 11.1029 40.4235C10.6919 40.7458 10.3103 41.108 10.0046 41.5251C9.83749 41.7229 9.7113 41.9483 9.57226 42.1633C9.44 42.3824 9.33751 42.6167 9.22009 42.8419C9.15025 42.9768 9.19557 43.1456 9.3281 43.2263C9.46732 43.3111 9.64924 43.268 9.73473 43.1298L9.75544 43.0966C9.87793 42.8984 9.9844 42.6911 10.1172 42.5022C10.2564 42.3177 10.3809 42.1231 10.542 41.9587C10.8369 41.6068 11.1931 41.315 11.5666 41.0599C11.9413 40.8041 12.3544 40.6082 12.7816 40.4635C12.9953 40.3912 13.2135 40.3337 13.4326 40.2886C13.5424 40.2695 13.6521 40.2481 13.7612 40.2364Z" fill="#1D5632"/>
<path d="M40.3723 33.248C40.4495 33.2328 40.4949 33.228 40.5518 33.2211C40.6073 33.2139 40.6589 33.2114 40.7122 33.2067C40.8172 33.2002 40.9213 33.1941 41.0239 33.195C41.2299 33.1921 41.4322 33.2037 41.6335 33.2212C42.0352 33.2577 42.4279 33.3299 42.8128 33.4238C43.1969 33.522 43.5723 33.6426 43.9366 33.7865C44.1202 33.8542 44.2964 33.9394 44.4759 34.015C44.6523 34.098 44.8254 34.1868 44.9996 34.2724C45.1393 34.3412 45.1965 34.5092 45.1274 34.6478C45.0615 34.7799 44.905 34.8377 44.7694 34.7838L44.753 34.7771L44.2402 34.5717C44.0661 34.5137 43.8952 34.4459 43.7194 34.396C43.3698 34.2878 43.0148 34.2033 42.6586 34.1401C42.302 34.0816 41.9432 34.0435 41.5884 34.0384C41.4113 34.0365 41.2344 34.0396 41.062 34.0556C40.9753 34.0611 40.8904 34.0731 40.8071 34.0845C40.7661 34.0913 40.7234 34.0966 40.6853 34.1051C40.6486 34.1117 39.8528 34.2767 39.8374 34.2818C39.505 34.3335 39.4454 34.1658 39.4178 33.9168C39.4008 33.7607 39.3135 33.5178 39.541 33.414C39.558 33.4099 40.3365 33.2551 40.3535 33.2517L40.3723 33.248Z" fill="#1D5632"/>
<path d="M14.7214 24.0588C15.1015 23.5492 15.5521 23.0909 16.0601 22.7464C16.3103 22.5704 16.5745 22.4227 16.8472 22.3118C17.1175 22.1964 17.3968 22.1182 17.6769 22.0802C17.9571 22.0385 18.2409 22.0654 18.5123 22.1203C18.7842 22.1695 19.0514 22.2261 19.3322 22.2834C19.8977 22.3895 20.4807 22.5692 21.175 22.7024C21.2073 22.7087 21.2386 22.6878 21.2451 22.6557C21.2479 22.6415 21.2452 22.6272 21.2386 22.6155C20.8875 21.9964 20.3262 21.5438 19.6587 21.2595C19.494 21.184 19.3132 21.1418 19.135 21.0997C18.9513 21.0746 18.7679 21.0491 18.5803 21.0591C18.2076 21.0708 17.8384 21.1373 17.4888 21.2416C17.1384 21.3445 16.8083 21.4957 16.5082 21.6818C16.2106 21.8729 15.9435 22.097 15.7053 22.3408C15.2408 22.8405 14.8663 23.3959 14.6249 24.0104C14.6139 24.0381 14.6276 24.0694 14.6557 24.0802C14.6791 24.0892 14.705 24.0811 14.7191 24.062L14.7214 24.0588Z" fill="#1D5632"/>
<path d="M17.9282 27.5317C18.0731 27.3215 18.286 27.179 18.5157 27.0809C18.7473 26.9852 19.0057 26.9422 19.2634 26.9596C19.5208 26.9741 19.7778 27.0533 19.9921 27.1927C20.2109 27.3239 20.3812 27.5216 20.4859 27.7472C20.2338 27.6914 20.0317 27.6174 19.8235 27.5805C19.6214 27.5326 19.4255 27.5075 19.2274 27.4951C19.0293 27.4815 18.8272 27.4801 18.6144 27.4901L17.9282 27.5317Z" fill="#1D5632"/>
<path d="M19.7235 24.6252C19.644 24.6298 19.5685 24.6519 19.4969 24.6866C19.6229 24.7638 19.7166 24.8907 19.7419 25.0469C19.7887 25.3329 19.5928 25.6019 19.3045 25.6482C19.1737 25.6692 19.0471 25.6385 18.9426 25.5741C18.9152 25.7269 18.9037 25.8908 18.9137 26.0616C18.9581 26.8268 19.3926 27.4243 19.8842 27.3962C20.3758 27.3683 20.7384 26.7251 20.6941 25.9602C20.6498 25.1949 20.2152 24.5973 19.7235 24.6252Z" fill="#1D5632"/>
<path d="M18.4243 25.3575C18.4765 25.1371 18.6079 24.9483 18.7704 24.7906C18.9356 24.6348 19.1464 24.5161 19.3773 24.4594C19.607 24.4016 19.8571 24.4051 20.0763 24.4816C20.299 24.5489 20.489 24.684 20.6319 24.8542C20.4029 24.8424 20.2089 24.8073 20.0182 24.8145C19.8304 24.8084 19.6544 24.8341 19.4825 24.876C19.135 24.9578 18.8095 25.1373 18.4243 25.3575Z" fill="#1D5632"/>
<path d="M33.1949 20.8203C32.8063 20.3323 32.314 19.9298 31.7445 19.6198C31.4579 19.4694 31.1494 19.3469 30.822 19.2659C30.4943 19.19 30.1495 19.1577 29.8026 19.1767C29.4571 19.1962 29.1033 19.2463 28.7679 19.3558C28.4325 19.464 28.1214 19.6406 27.8723 19.8728C27.3697 20.3349 27.0146 20.9114 26.9013 21.578C26.8954 21.6105 26.9179 21.6415 26.9504 21.6469C26.9643 21.6492 26.9778 21.6466 26.989 21.6406C27.5834 21.3272 28.0515 20.9956 28.5225 20.7318L29.1941 20.3313C29.4134 20.1927 29.6538 20.0841 29.9112 20.0292C30.1676 19.9727 30.4367 19.9532 30.7094 19.9714C30.9834 19.9841 31.2621 20.0343 31.5367 20.1157C32.0878 20.2742 32.6294 20.5466 33.117 20.895L33.1205 20.8973C33.1446 20.915 33.1787 20.9094 33.1964 20.8853C33.2107 20.8652 33.2095 20.8388 33.1949 20.8203Z" fill="#1D5632"/>
<path d="M28.5679 26.6152C28.685 26.3741 28.8767 26.1879 29.0914 26.0385C29.3084 25.8913 29.5591 25.787 29.8242 25.7364C30.0881 25.682 30.3701 25.6958 30.6296 25.7707C30.8911 25.8387 31.1238 25.9941 31.2958 26.1917C31.0237 26.1951 30.7976 26.1694 30.5721 26.189C30.3499 26.1992 30.1377 26.2207 29.9246 26.264C29.7114 26.3042 29.4973 26.3558 29.2754 26.4178L28.5679 26.6152Z" fill="#1D5632"/>
<path d="M29.0727 23.3586C28.9932 23.3633 28.9178 23.3853 28.846 23.42C28.9717 23.4972 29.0654 23.6242 29.0911 23.7803C29.1374 24.0661 28.9416 24.3353 28.6537 24.3816C28.5225 24.4025 28.3962 24.372 28.2918 24.3075C28.2641 24.4604 28.2529 24.6243 28.2628 24.7949C28.3071 25.5602 28.7416 26.1577 29.2331 26.1296C29.725 26.1015 30.0874 25.4585 30.0433 24.6935C29.9986 23.9283 29.5644 23.3307 29.0727 23.3586Z" fill="#1D5632"/>
<path d="M27.9346 23.9015C28.0201 23.6915 28.179 23.525 28.364 23.3936C28.5515 23.2649 28.778 23.1795 29.015 23.159C29.2512 23.1365 29.4976 23.1782 29.7024 23.287C29.9118 23.3873 30.0789 23.5498 30.1937 23.7396C29.9693 23.6932 29.7833 23.6292 29.5934 23.6072C29.4085 23.5724 29.231 23.5713 29.0547 23.5866C28.6987 23.6145 28.3493 23.7424 27.9346 23.9015Z" fill="#1D5632"/>
<path d="M46.4462 15.8115C46.2616 15.8115 46.0096 15.7257 45.857 15.317C45.8128 15.1985 45.8237 15.0563 45.8353 14.9057C45.8428 14.8093 45.853 14.677 45.8334 14.6261C45.7265 14.3484 45.4201 14.3403 45.3854 14.3403C45.3732 14.3403 45.3616 14.3409 45.3509 14.3419C45.3079 14.3459 45.2663 14.3478 45.226 14.3478C44.5578 14.3478 44.215 13.8348 44.1535 13.5863C44.0348 13.1068 44.4185 12.7126 44.7152 12.5972C44.8977 12.5261 45.1344 12.4868 45.3818 12.4868C45.8869 12.4868 46.3606 12.647 46.6816 12.9264C47.1343 13.3201 47.4005 13.7746 47.4727 14.2771C47.6081 15.0377 47.1106 15.6009 46.7135 15.7558C46.6219 15.7925 46.5313 15.8115 46.4462 15.8115Z" fill="#D99A29"/>
<path d="M45.3823 12.6797C45.7762 12.6797 46.2278 12.7874 46.5542 13.0715C46.9728 13.4356 47.2147 13.8426 47.2811 14.3047C47.4012 14.9792 46.9533 15.4561 46.6429 15.5771C46.5806 15.6021 46.5136 15.6195 46.4467 15.6195C46.2964 15.6195 46.1447 15.5326 46.0395 15.2506C45.9787 15.088 46.0834 14.7354 46.0151 14.558C45.8933 14.2413 45.5843 14.1483 45.3858 14.1483C45.3673 14.1483 45.3497 14.1491 45.3332 14.1508C45.2966 14.1542 45.2609 14.1557 45.2265 14.1557C44.6659 14.1557 44.3884 13.7266 44.3425 13.5408C44.2483 13.1609 44.5796 12.8574 44.7866 12.7768C44.9406 12.7167 45.1516 12.6797 45.3823 12.6797ZM45.3823 12.2949C45.1113 12.2949 44.8492 12.3388 44.6446 12.4186C44.2736 12.5629 43.8175 13.0351 43.9657 13.6327C44.0525 13.9836 44.4716 14.5406 45.2265 14.5406C45.2733 14.5406 45.3215 14.5383 45.3694 14.5339C45.3746 14.5334 45.3801 14.5332 45.3858 14.5332C45.4194 14.5332 45.5873 14.5407 45.6494 14.6871C45.6551 14.7267 45.6471 14.8292 45.6424 14.8915C45.6296 15.0561 45.6165 15.2264 45.6757 15.3844C45.8771 15.9237 46.2451 16.0043 46.4467 16.0043C46.557 16.0043 46.6719 15.9807 46.7883 15.934C47.2421 15.757 47.8158 15.1147 47.6643 14.2443C47.5842 13.6973 47.2967 13.2053 46.81 12.7821C46.3228 12.3582 45.7064 12.2949 45.3823 12.2949Z" fill="#1D5632"/>
<path d="M46.9046 14.6825C46.9046 14.6825 46.8988 14.6452 46.892 14.5801C46.8911 14.5473 46.8829 14.5084 46.872 14.4672C46.8628 14.4254 46.8527 14.3802 46.8331 14.3301C46.8183 14.2801 46.7962 14.2282 46.7699 14.1744C46.7489 14.1192 46.7108 14.0675 46.682 14.0103C46.61 13.903 46.5329 13.788 46.4335 13.691C46.3898 13.6373 46.3354 13.5936 46.2866 13.5461C46.232 13.5058 46.1847 13.4565 46.1294 13.4221C46.025 13.3433 45.917 13.2885 45.8216 13.2432C45.7725 13.2281 45.7277 13.2034 45.6856 13.1954C45.644 13.1874 45.6063 13.1717 45.575 13.1701C45.5103 13.1624 45.4731 13.1579 45.4731 13.1579C45.4731 13.1579 45.5077 13.1456 45.5737 13.1274C45.6067 13.1172 45.6476 13.1176 45.6956 13.1137C45.7442 13.1085 45.7965 13.1188 45.856 13.1247C45.9132 13.1364 45.9767 13.1496 46.0396 13.1738C46.1024 13.1982 46.1697 13.2236 46.2318 13.2625C46.2973 13.2968 46.359 13.3407 46.4207 13.387C46.4777 13.4382 46.5406 13.4857 46.592 13.5446C46.6456 13.6015 46.6933 13.6633 46.7375 13.7262C46.7835 13.7878 46.816 13.8576 46.85 13.9219C46.8787 13.9896 46.9076 14.054 46.9217 14.1204C46.9299 14.153 46.9378 14.1844 46.9455 14.215C46.9487 14.2466 46.9517 14.2769 46.9547 14.3062C46.9635 14.3631 46.9591 14.4186 46.9546 14.4662C46.9528 14.5143 46.9451 14.5529 46.9346 14.5839C46.9168 14.6468 46.9046 14.6825 46.9046 14.6825Z" fill="#1D5632"/>
<path d="M53.014 21.4137C52.8224 21.4137 52.6312 21.3774 52.4461 21.3059C51.9373 21.1286 51.5188 20.762 51.209 20.2183C50.8113 19.5212 51.0152 18.6062 51.2868 18.1792C51.4068 17.9905 51.7265 17.7097 52.115 17.7097C52.2128 17.7097 52.3081 17.7278 52.3984 17.7636C52.6663 17.8696 53.1766 18.3552 52.9489 19.1079C52.9478 19.1117 52.839 19.4856 53.1577 19.672C53.2124 19.7042 53.3567 19.7178 53.4726 19.7288C53.6394 19.7446 53.7967 19.7594 53.9152 19.8266C54.1505 19.9598 54.2923 20.1214 54.3367 20.3065C54.3763 20.4712 54.3376 20.6426 54.2223 20.8157C54.0349 21.1028 53.576 21.4137 53.014 21.4137Z" fill="#D99A29"/>
<path d="M52.1152 17.9019C52.1848 17.9019 52.2559 17.9141 52.3267 17.9422C52.5227 18.0198 52.9585 18.407 52.7633 19.0525C52.7039 19.2486 52.7129 19.635 53.0592 19.8376C53.2387 19.9427 53.6503 19.8979 53.8192 19.9935C54.2487 20.2369 54.1955 20.5071 54.0605 20.7094C53.9065 20.9453 53.5079 21.2211 53.0142 21.2211C52.8565 21.2211 52.6889 21.193 52.5168 21.1264C52.0381 20.9597 51.6637 20.6248 51.3779 20.1234C51.0317 19.5163 51.2001 18.6762 51.451 18.2817C51.5519 18.1231 51.8191 17.902 52.1152 17.9019ZM52.1152 17.5171C51.6776 17.5171 51.2941 17.807 51.1228 18.0764C50.8256 18.5437 50.6033 19.5467 51.0402 20.3129C51.3727 20.8962 51.8241 21.2913 52.3821 21.4874C52.5879 21.5661 52.8004 21.6059 53.0142 21.6059C53.6487 21.6059 54.1702 21.2497 54.3863 20.9186C54.5664 20.6486 54.5615 20.412 54.5256 20.2618C54.4681 20.0228 54.2952 19.82 54.0116 19.6593C53.8569 19.5716 53.671 19.5541 53.4911 19.5371C53.4167 19.5301 53.2932 19.5184 53.2509 19.5029C53.0716 19.3926 53.1342 19.1653 53.1349 19.163C53.3799 18.3528 52.8939 17.7523 52.4706 17.5847C52.357 17.5398 52.2374 17.5171 52.1152 17.5171Z" fill="#1D5632"/>
<path d="M51.5994 19.0149C51.5994 19.0149 51.6045 19.056 51.6097 19.1275C51.6097 19.1638 51.6179 19.2066 51.6284 19.2525C51.6371 19.2991 51.6474 19.3496 51.6671 19.4056C51.6819 19.4618 51.7042 19.5204 51.7313 19.5811C51.753 19.6433 51.7914 19.703 51.8218 19.7679C51.8947 19.8919 51.9755 20.0233 52.0779 20.1389C52.1236 20.2012 52.1788 20.2548 52.2302 20.3106C52.2868 20.3603 52.3363 20.4179 52.3941 20.4607C52.45 20.5068 52.5042 20.5503 52.5601 20.5858C52.6135 20.6265 52.6704 20.6502 52.7201 20.6819C52.7728 20.7031 52.8216 20.728 52.8665 20.7424C52.9119 20.7523 52.9526 20.7687 52.9869 20.773C53.0581 20.7807 53.0987 20.7851 53.0987 20.7851C53.0987 20.7851 53.0606 20.7974 52.9871 20.8157C52.914 20.8274 52.8043 20.8284 52.6772 20.7976C52.6171 20.7769 52.5455 20.762 52.4813 20.726C52.4132 20.6959 52.3447 20.6585 52.2793 20.6119C52.2117 20.5682 52.1478 20.5155 52.0848 20.4598C52.0259 20.4001 51.9627 20.3421 51.9102 20.2748C51.8549 20.2099 51.8087 20.1382 51.7628 20.0681C51.7181 19.9973 51.6831 19.9218 51.6502 19.8494C51.6207 19.7747 51.5922 19.7033 51.5782 19.6306C51.5697 19.5951 51.5619 19.5606 51.554 19.5272C51.551 19.4927 51.548 19.4594 51.5452 19.4276C51.5362 19.3651 51.5407 19.3047 51.5459 19.2526C51.5482 19.2001 51.5557 19.1574 51.5672 19.1233C51.5865 19.0542 51.5994 19.0149 51.5994 19.0149Z" fill="#1D5632"/>
<path d="M53.8201 17.4078C53.1961 17.4078 52.6738 17.0267 52.5206 16.4595C52.3127 15.6913 53.1187 14.9725 53.4749 14.6992C53.5461 14.6446 53.6349 14.6145 53.7243 14.6145C53.7717 14.6145 53.8186 14.6228 53.8638 14.6388C54.235 14.772 55.1147 15.1596 55.2684 15.8818C55.3306 16.1733 55.2683 16.4802 55.0931 16.746C54.8838 17.0636 54.5345 17.2931 54.1352 17.3754C54.0304 17.3968 53.9244 17.4078 53.8201 17.4078Z" fill="#D99A29"/>
<path d="M53.7246 14.8072C53.7493 14.8072 53.774 14.8114 53.7983 14.8201C54.1036 14.9296 54.9434 15.2854 55.079 15.9219C55.1986 16.4843 54.7507 17.0523 54.0961 17.1872C54.0024 17.2064 53.9101 17.2156 53.8204 17.2156C53.2833 17.2156 52.8368 16.8856 52.7082 16.4098C52.527 15.7402 53.3162 15.0648 53.5938 14.8517C53.632 14.8225 53.6779 14.8072 53.7246 14.8072ZM53.7246 14.4224C53.5924 14.4224 53.4616 14.4667 53.3565 14.5472C52.9694 14.8442 52.0954 15.6298 52.3334 16.5096C52.5097 17.1622 53.1073 17.6006 53.8204 17.6006C53.9378 17.6006 54.0571 17.5883 54.1749 17.5641C54.6245 17.4714 55.0184 17.2118 55.2558 16.8515C55.4594 16.5427 55.5314 16.1843 55.4585 15.8424C55.2845 15.0256 54.3318 14.6023 53.9303 14.4581C53.8635 14.4344 53.7945 14.4224 53.7246 14.4224Z" fill="#1D5632"/>
<path d="M54.4252 15.4924C54.4252 15.4924 54.4483 15.5081 54.4859 15.5377C54.5252 15.5648 54.5722 15.6139 54.6249 15.6864C54.6719 15.7581 54.7169 15.8514 54.7352 15.9608C54.7431 16.0152 54.7527 16.0725 54.7465 16.1305C54.7465 16.1892 54.7317 16.2465 54.7214 16.3045C54.7024 16.3601 54.6844 16.4161 54.6574 16.4668C54.6356 16.5203 54.5983 16.564 54.5689 16.6091C54.5007 16.694 54.4245 16.7618 54.3496 16.8052C54.2761 16.8506 54.2056 16.8708 54.1573 16.88C54.1067 16.8851 54.0801 16.885 54.0801 16.885C54.0801 16.885 54.1031 16.8669 54.1399 16.8408C54.1755 16.8109 54.2218 16.7676 54.2697 16.7106C54.3175 16.6534 54.3646 16.5823 54.4096 16.5051C54.4496 16.4247 54.4892 16.3393 54.512 16.2492C54.5216 16.2043 54.5367 16.1595 54.5381 16.1142C54.5441 16.0691 54.5471 16.0247 54.546 15.9808C54.5461 15.9371 54.5385 15.8952 54.5369 15.8537C54.5265 15.8145 54.5206 15.7747 54.5128 15.7385C54.4912 15.6713 54.4732 15.6063 54.4514 15.5631C54.4338 15.5188 54.4252 15.4924 54.4252 15.4924Z" fill="#1D5632"/>
<path d="M48.624 20.5961C48.3904 20.5961 48.1561 20.5525 47.928 20.4666C47.1351 20.168 46.6898 19.4392 46.8925 18.7716C47.126 17.9995 48.3207 17.8705 48.8234 17.8508H48.825C48.9744 17.8508 49.1002 17.9082 49.188 18.0079C49.4757 18.335 50.1165 19.171 49.8559 19.8711C49.6898 20.3182 49.2176 20.5961 48.624 20.5961Z" fill="#D99A29"/>
<path d="M48.8413 18.0427C48.9185 18.0427 48.9907 18.0763 49.0418 18.1342C49.2777 18.4024 49.9016 19.1919 49.6739 19.8041C49.532 20.1852 49.1114 20.4033 48.6239 20.4033C48.4213 20.4033 48.2071 20.3656 47.9967 20.2863C47.2799 20.0163 46.9107 19.3779 47.0781 18.8266C47.2803 18.1585 48.4446 18.0578 48.831 18.0428C48.8343 18.0427 48.8379 18.0427 48.8413 18.0427ZM48.8413 17.6577C48.8329 17.6577 48.8243 17.6579 48.8158 17.6583C48.2713 17.6794 46.976 17.825 46.7065 18.7159C46.4742 19.4812 46.9696 20.3113 47.859 20.6461C48.1093 20.7404 48.3665 20.7881 48.6239 20.7881C49.3008 20.7881 49.8427 20.4622 50.0379 19.9373C50.3236 19.1693 49.7196 18.3194 49.3342 17.8811C49.2091 17.7392 49.0294 17.6577 48.8413 17.6577Z" fill="#1D5632"/>
<path d="M49.3613 19.188C49.3613 19.188 49.3679 19.2131 49.376 19.2567C49.3857 19.2998 49.3936 19.3611 49.3857 19.4424C49.3804 19.5223 49.3589 19.6133 49.3139 19.706C49.291 19.7513 49.2626 19.7981 49.2281 19.8403C49.1911 19.8809 49.1532 19.9223 49.1076 19.9555C49.0639 19.9909 49.0121 20.0145 48.9635 20.0394C48.9131 20.0619 48.8607 20.076 48.8098 20.0853C48.7596 20.0974 48.7088 20.0971 48.6623 20.0968C48.6152 20.0955 48.5713 20.0897 48.5319 20.0788C48.4526 20.0614 48.3931 20.0255 48.3558 19.9996C48.3202 19.9686 48.3037 19.9501 48.3037 19.9501C48.3037 19.9501 48.3286 19.9537 48.3721 19.96C48.4154 19.9624 48.4738 19.9646 48.5416 19.9557C48.6092 19.9491 48.6851 19.9294 48.7607 19.9024C48.7996 19.8905 48.835 19.869 48.8729 19.8524C48.9082 19.8312 48.9463 19.8123 48.9769 19.7843C49.0123 19.7618 49.0413 19.7319 49.0711 19.7034C49.0972 19.6721 49.1276 19.6434 49.1502 19.6101C49.1702 19.5753 49.1987 19.5457 49.2143 19.5106C49.2309 19.4763 49.2538 19.4449 49.2652 19.4137C49.2783 19.3824 49.2933 19.3537 49.3059 19.3267C49.3152 19.2979 49.3255 19.273 49.3333 19.2524C49.3498 19.2113 49.3613 19.188 49.3613 19.188Z" fill="#1D5632"/>
<path d="M45.2025 19.1854C45.0974 19.1854 44.9928 19.1718 44.8909 19.1449C44.2114 18.9649 43.814 18.2354 44.0049 17.5188C44.1645 16.9215 44.6861 16.5042 45.2737 16.5042C45.3786 16.5042 45.4836 16.5179 45.5855 16.5448C46.2652 16.725 46.6626 17.4544 46.4713 18.1709C46.3117 18.7684 45.7899 19.1854 45.2025 19.1854Z" fill="#D99A29"/>
<path d="M45.2749 16.697C45.3615 16.697 45.4493 16.708 45.5365 16.7311C46.1138 16.8841 46.4492 17.5067 46.2849 18.122C46.1454 18.6441 45.6911 18.9932 45.2036 18.9932C45.1169 18.9932 45.0292 18.9823 44.942 18.9592C44.3646 18.8063 44.0297 18.1835 44.1936 17.5683C44.3331 17.0461 44.7873 16.697 45.2749 16.697ZM45.2749 16.312C44.5995 16.312 44.0006 16.7881 43.8184 17.4697C43.6003 18.2888 44.0592 19.1238 44.8418 19.331C44.9602 19.3623 45.0819 19.3782 45.2036 19.3782C45.879 19.3782 46.4778 18.9021 46.66 18.2206C46.8787 17.4016 46.4196 16.5667 45.6367 16.3592C45.5182 16.3281 45.3965 16.312 45.2749 16.312Z" fill="#1D5632"/>
<path d="M46.0096 18.0203C46.0096 18.0203 46.0028 18.0474 45.9883 18.093C45.9752 18.139 45.9513 18.2014 45.9041 18.275C45.8598 18.3488 45.7962 18.4264 45.7107 18.4953C45.6698 18.5315 45.6196 18.5598 45.5698 18.5897C45.516 18.6116 45.4632 18.6403 45.4052 18.654C45.348 18.6711 45.2886 18.6779 45.2308 18.6844C45.1726 18.6877 45.1148 18.6865 45.0604 18.6778C45.0054 18.6733 44.9542 18.6568 44.9066 18.6425C44.8596 18.6247 44.8156 18.6081 44.7787 18.5841C44.7404 18.5641 44.7088 18.5395 44.6821 18.5165C44.6543 18.496 44.636 18.4693 44.6192 18.452C44.5898 18.411 44.5786 18.3863 44.5786 18.3863C44.5786 18.3863 44.6757 18.4436 44.8237 18.4691C44.8596 18.4781 44.9012 18.4792 44.9419 18.4859C44.9841 18.4879 45.0276 18.4903 45.0726 18.489C45.1176 18.4916 45.1634 18.4803 45.2095 18.4781C45.2553 18.4704 45.3018 18.4629 45.3463 18.4475C45.3928 18.4395 45.4349 18.4175 45.4791 18.4032C45.5188 18.3789 45.5649 18.367 45.6017 18.3405C45.639 18.3156 45.6801 18.2967 45.7126 18.2693C45.7459 18.2432 45.7823 18.2219 45.809 18.1964C45.8387 18.1719 45.866 18.1494 45.8902 18.1296C45.913 18.1058 45.9348 18.0863 45.9523 18.07C45.9877 18.0377 46.0096 18.0203 46.0096 18.0203Z" fill="#1D5632"/>
<path d="M51.0917 13.2089C50.5691 13.2089 50.0571 12.9333 49.7223 12.4716C49.4439 12.0875 49.3255 11.6188 49.3977 11.1857C49.4581 10.8234 49.648 10.5132 49.9325 10.3121C50.1857 10.1329 50.4563 10.042 50.7369 10.042C51.0673 10.042 51.5657 10.1744 52.0631 10.8047C52.3824 11.209 52.52 11.6355 52.4615 12.0378C52.4084 12.4017 52.1942 12.7329 51.8585 12.9706C51.6379 13.1264 51.3726 13.2089 51.0917 13.2089Z" fill="#D99A29"/>
<path d="M50.7365 10.2345C51.1257 10.2345 51.5342 10.4469 51.9101 10.9233C52.5257 11.7034 52.3059 12.4172 51.7454 12.8139C51.5515 12.951 51.3245 13.0164 51.0914 13.0164C50.6504 13.0164 50.1868 12.7828 49.8796 12.3592C49.4099 11.7117 49.4838 10.8652 50.0447 10.4688C50.2595 10.3167 50.4943 10.2345 50.7365 10.2345ZM50.7365 9.84961C50.4194 9.84961 50.1022 9.95531 49.8194 10.1553C49.4927 10.3863 49.2747 10.7412 49.2059 11.1542C49.1252 11.6375 49.2561 12.1586 49.5647 12.584C49.9357 13.0958 50.5064 13.4012 51.0914 13.4012C51.4131 13.4012 51.7171 13.3065 51.9707 13.1273C52.3501 12.8587 52.5925 12.4816 52.6531 12.0653C52.6994 11.7476 52.661 11.2504 52.2157 10.686C51.67 9.99471 51.1102 9.84961 50.7365 9.84961Z" fill="#1D5632"/>
<path d="M51.8775 11.9443C51.8775 11.9443 51.8718 11.9754 51.8588 12.0281C51.8527 12.0545 51.845 12.0861 51.8268 12.1216C51.8103 12.1569 51.7938 12.2011 51.7645 12.2394C51.7148 12.3237 51.633 12.4081 51.5314 12.4817C51.4776 12.5127 51.4237 12.5523 51.3604 12.5728C51.2994 12.5997 51.2334 12.6142 51.1677 12.6305C51.1006 12.6375 51.0334 12.6462 50.9672 12.6417C50.9006 12.6443 50.8369 12.6257 50.7757 12.6154C50.6551 12.5817 50.5484 12.5339 50.4713 12.4733C50.4299 12.4477 50.3988 12.4149 50.3708 12.3879C50.3417 12.3624 50.3207 12.3355 50.3046 12.3126C50.2717 12.2677 50.2554 12.2416 50.2554 12.2416C50.2554 12.2416 50.285 12.2553 50.3323 12.2798C50.3785 12.3059 50.4486 12.3354 50.5298 12.3645C50.5707 12.3794 50.615 12.3924 50.6625 12.4029C50.7086 12.4173 50.7603 12.4187 50.8106 12.4295C50.9141 12.4372 51.0233 12.4382 51.1304 12.4191C51.2375 12.4012 51.3394 12.3632 51.4329 12.3201C51.4761 12.2929 51.5235 12.2735 51.561 12.2434C51.6015 12.2171 51.6374 12.1885 51.67 12.1601C51.7048 12.1331 51.7296 12.1044 51.7559 12.0797C51.782 12.0556 51.8039 12.0304 51.8206 12.0089C51.8556 11.9672 51.8775 11.9443 51.8775 11.9443Z" fill="#1D5632"/>
<path d="M49.3298 17.0587C48.9445 17.0504 48.593 16.8737 48.3399 16.5609C48.108 16.2749 47.9883 15.902 48.042 15.6332C48.2747 14.4714 49.7111 13.9424 50.9473 13.9424C51.1763 13.9424 51.4003 13.9601 51.613 13.9948C51.7075 14.0101 51.7916 14.0651 51.844 14.1453C51.898 14.2279 51.9141 14.3302 51.8886 14.4259C51.5311 15.7573 50.1301 17.0589 49.3452 17.0589L49.3298 17.0587Z" fill="#D99A29"/>
<path d="M50.9474 14.1346C51.1646 14.1346 51.3785 14.1513 51.5816 14.1845C51.6709 14.199 51.7245 14.2894 51.7012 14.3762C51.3588 15.6514 50.008 16.8661 49.3453 16.8661C49.3415 16.8661 49.3378 16.8661 49.334 16.8661C48.5577 16.8494 48.1563 16.0516 48.2325 15.6704C48.4381 14.6438 49.7455 14.1346 50.9474 14.1346ZM50.9474 13.7498C49.6345 13.7498 48.1059 14.3274 47.8519 15.5954C47.7867 15.9219 47.9188 16.348 48.1886 16.6813C48.4784 17.039 48.8822 17.2413 49.3256 17.251L49.3453 17.2512C50.2122 17.2512 51.6922 15.9051 52.0761 14.4753C52.1159 14.327 52.0906 14.1686 52.0071 14.0405C51.925 13.9148 51.7927 13.8287 51.6444 13.8046C51.4215 13.7682 51.1869 13.7498 50.9474 13.7498Z" fill="#1D5632"/>
<path d="M50.7475 14.4272C50.7475 14.4272 50.596 14.4856 50.3686 14.5734C50.2563 14.6164 50.1284 14.6715 49.9925 14.7299C49.8584 14.7925 49.7161 14.858 49.5814 14.9363C49.514 14.9745 49.446 15.0126 49.3831 15.0555C49.3209 15.0993 49.256 15.1376 49.2005 15.184C49.1416 15.2266 49.0894 15.2728 49.0384 15.3161C48.9866 15.3586 48.9463 15.4066 48.9022 15.4464C48.8603 15.4877 48.8283 15.531 48.795 15.5665C48.7616 15.6023 48.738 15.6371 48.7168 15.6653C48.673 15.7221 48.6479 15.7544 48.6479 15.7544C48.6479 15.7544 48.6574 15.7152 48.6785 15.6459C48.6896 15.6116 48.7002 15.5678 48.7245 15.5235C48.7472 15.4788 48.7682 15.4237 48.8033 15.3719C48.8386 15.3208 48.8719 15.259 48.9209 15.2061C48.9677 15.1512 49.0161 15.0909 49.0765 15.0402C49.1894 14.9284 49.331 14.8353 49.4747 14.7493C49.5491 14.7108 49.6232 14.6717 49.699 14.6398C49.7729 14.6039 49.8507 14.5811 49.9237 14.5539C50.0723 14.5071 50.2131 14.4722 50.3362 14.4548C50.5813 14.4145 50.7475 14.4272 50.7475 14.4272Z" fill="#1D5632"/>
<path d="M51.2878 14.5383C51.2878 14.5383 51.1677 14.6582 50.9719 14.8143C50.7772 14.9717 50.5075 15.1664 50.2285 15.3466C49.9484 15.5256 49.6592 15.6904 49.4346 15.8021C49.2109 15.9153 49.0513 15.9747 49.0513 15.9747C49.0513 15.9747 49.1713 15.8547 49.367 15.6986C49.5617 15.5409 49.8315 15.3464 50.1107 15.1664C50.3906 14.9875 50.68 14.823 50.9046 14.7112C51.1284 14.5979 51.2878 14.5383 51.2878 14.5383Z" fill="#1D5632"/>
<path d="M50.7814 15.3376C50.7814 15.3376 50.7367 15.4602 50.6273 15.622C50.5202 15.7834 50.3479 15.9815 50.1359 16.1381C50.0291 16.2146 49.9163 16.2855 49.8001 16.3331C49.6863 16.3847 49.5701 16.4139 49.4704 16.4263C49.4198 16.4308 49.3746 16.4365 49.3331 16.4322C49.2921 16.4296 49.2573 16.4293 49.2286 16.4215C49.1714 16.4089 49.1406 16.3998 49.1406 16.3998C49.1406 16.3998 49.1735 16.3908 49.2271 16.3788C49.2542 16.375 49.2858 16.3601 49.3218 16.3507C49.3578 16.3416 49.3965 16.3215 49.4391 16.3069C49.5225 16.27 49.6167 16.2243 49.7129 16.1649C49.7625 16.1383 49.8088 16.1013 49.8598 16.0715C49.9086 16.037 49.9591 16.0044 50.0066 15.9659C50.1064 15.8966 50.1992 15.8165 50.29 15.7451C50.3795 15.6704 50.4629 15.6005 50.5346 15.5406C50.6769 15.4191 50.7814 15.3376 50.7814 15.3376Z" fill="#1D5632"/>
<path d="M47.2698 11.6267C46.8611 11.6267 46.5076 11.4822 46.2745 11.2201C45.7499 10.6304 45.7276 8.87808 46.0937 8.00059C46.2949 7.51811 46.5642 7.40262 46.7548 7.39069C46.7706 7.3897 46.7863 7.38916 46.8022 7.38916C47.1898 7.38916 47.587 7.68088 47.9508 8.23282C48.4673 9.01582 48.8627 10.2975 48.6041 10.8845C48.4115 11.3215 47.8629 11.6267 47.27 11.6267H47.2698Z" fill="#D99A29"/>
<path d="M46.8021 7.58155C47.7695 7.58155 48.7611 10.0469 48.4262 10.8072C48.2547 11.196 47.7555 11.4341 47.2697 11.4341C46.9467 11.4341 46.63 11.3288 46.4196 11.0926C45.7974 10.3931 45.9516 7.63368 46.7668 7.58271C46.7786 7.58209 46.7902 7.58155 46.8021 7.58155ZM46.8021 7.19678C46.7822 7.19678 46.7624 7.19732 46.7425 7.19866C46.4968 7.21392 46.1538 7.35273 45.9142 7.92693C45.52 8.87189 45.5532 10.7003 46.1288 11.3473C46.3995 11.6515 46.8047 11.8191 47.2697 11.8191C47.9479 11.8191 48.5556 11.4744 48.7817 10.9614C49.0693 10.3087 48.6683 8.96898 48.1132 8.1273C47.7115 7.51865 47.2582 7.19678 46.8021 7.19678Z" fill="#1D5632"/>
<path d="M47.2957 10.6016C47.2957 10.6016 47.248 10.4414 47.1957 10.2021C47.1697 10.0823 47.1412 9.94271 47.1127 9.79322C47.0857 9.64391 47.0569 9.48463 47.0281 9.32518C47.0063 9.16474 46.969 9.00834 46.9494 8.85777C46.939 8.78239 46.9213 8.7124 46.9099 8.64393C46.8961 8.57619 46.8859 8.51113 46.8765 8.45074C46.869 8.38963 46.8512 8.33822 46.8416 8.28949C46.8309 8.24086 46.8217 8.19841 46.8141 8.16351C46.8009 8.09163 46.7935 8.05054 46.7935 8.05054C46.7935 8.05054 46.8163 8.08455 46.8538 8.14682C46.872 8.17849 46.894 8.21708 46.9192 8.26114C46.9425 8.30618 46.9763 8.35598 46.9954 8.41467C47.0184 8.47237 47.0429 8.53518 47.0661 8.60275C47.0886 8.67032 47.1196 8.74067 47.1355 8.81613C47.1738 8.9658 47.2148 9.12678 47.2415 9.28902C47.2535 9.3704 47.2655 9.45188 47.2771 9.53192C47.2908 9.61187 47.2936 9.69173 47.3013 9.76828C47.3148 9.92181 47.3204 10.0656 47.319 10.1892C47.3202 10.4362 47.2957 10.6016 47.2957 10.6016Z" fill="#1D5632"/>
<path d="M47.7396 10.7096C47.7396 10.7096 47.7445 10.7016 47.7532 10.6867C47.7602 10.6713 47.7799 10.651 47.7878 10.6211C47.7951 10.5899 47.8081 10.5623 47.8112 10.5182C47.8184 10.4774 47.8205 10.4305 47.8205 10.3785C47.8243 10.3282 47.8139 10.2701 47.814 10.2119C47.8058 10.1521 47.8016 10.0902 47.7912 10.0252C47.7833 9.96052 47.77 9.8943 47.758 9.82637C47.7482 9.75844 47.7304 9.69034 47.716 9.62196C47.6566 9.34774 47.5774 9.07765 47.5083 8.87629C47.4738 8.77561 47.4418 8.69153 47.4166 8.6333C47.3915 8.57524 47.3779 8.53979 47.3779 8.53979C47.3779 8.53979 47.4057 8.56375 47.4526 8.60979C47.4988 8.65582 47.5603 8.7276 47.6199 8.822C47.6828 8.91514 47.7437 9.03117 47.796 9.16011C47.8513 9.28843 47.8921 9.43164 47.9275 9.57584C47.9884 9.86639 48.0042 10.1707 47.9431 10.3951C47.9309 10.451 47.9119 10.501 47.8897 10.5435C47.8743 10.5865 47.8401 10.6222 47.8208 10.6483C47.8009 10.6755 47.7747 10.6831 47.7618 10.6949C47.7472 10.7045 47.7396 10.7096 47.7396 10.7096Z" fill="#1D5632"/>
<path d="M46.9635 10.8913C46.9635 10.8913 46.9322 10.8819 46.8791 10.8625C46.8277 10.8363 46.7508 10.7895 46.6863 10.7121C46.6508 10.6746 46.6197 10.6299 46.5893 10.5802C46.5619 10.5303 46.5299 10.477 46.51 10.4185C46.4604 10.3036 46.432 10.1753 46.4096 10.0476C46.371 9.7905 46.3828 9.53306 46.4137 9.34417C46.4436 9.15475 46.4893 9.03271 46.4893 9.03271C46.4893 9.03271 46.5161 9.16031 46.5381 9.34624C46.551 9.4392 46.5632 9.54697 46.576 9.6612C46.5923 9.77498 46.6017 9.89665 46.6236 10.015C46.63 10.0752 46.6426 10.1337 46.6529 10.1917C46.6669 10.2485 46.6744 10.3062 46.6904 10.3591C46.7181 10.4664 46.7501 10.5645 46.7889 10.6434C46.8264 10.7251 46.869 10.7834 46.9023 10.8267C46.9419 10.8668 46.9635 10.8913 46.9635 10.8913Z" fill="#1D5632"/>
<path d="M43.4533 19.1981L43.7037 19.1871C43.7037 19.1871 43.7477 19.1851 43.8314 19.1851C44.3434 19.1851 46.1957 19.256 48.5414 20.1677C51.4331 21.2915 52.8612 22.71 52.9207 22.7698L53.1034 22.9539L41.7656 36.4963L43.4533 19.1981Z" fill="#A93439"/>
<path d="M43.831 19.4709C44.2965 19.4709 46.1207 19.5338 48.4359 20.4337C51.3037 21.5482 52.7149 22.9701 52.7149 22.9701L42.1422 35.5985L43.7155 19.4724C43.7155 19.4725 43.7552 19.4709 43.831 19.4709ZM43.8312 18.8992H43.831C43.7393 18.8992 43.6911 18.9013 43.6911 18.9013L43.192 18.9239L43.1419 19.4173L41.5687 35.5434L41.3882 37.3935L42.5854 35.9637L53.1581 23.3352L53.4912 22.9375L53.1255 22.5691C53.0643 22.5076 51.5942 21.0472 48.6462 19.9013C46.2535 18.9716 44.3558 18.8992 43.8312 18.8992Z" fill="#1D5632"/>
<path d="M46.3599 35.1916C45.5603 35.1916 44.7941 34.7513 44.2869 34.4599C44.1682 34.3918 44.0655 34.3322 43.9829 34.2919C43.904 34.2533 43.8027 34.2048 43.6854 34.1488C42.9992 33.8206 41.8501 33.2715 41.3946 32.8915C41.0575 32.6105 40.8959 32.2283 40.9007 31.7226C40.9037 31.4508 41.1344 31.2382 41.4261 31.2382C41.4402 31.2382 41.4541 31.2386 41.4681 31.2398C41.331 31.1656 41.2029 31.094 41.0863 31.0259C41.0705 31.0165 41.0554 31.0059 41.0416 30.9943C41.0191 30.9751 41 30.955 40.9827 30.9324C40.6926 30.5463 40.5703 29.8025 40.7026 29.237C40.7936 28.8486 40.9955 28.565 41.2864 28.417C41.343 28.3886 41.4015 28.3744 41.4617 28.3744C41.4676 28.3744 41.4771 28.3746 41.4831 28.375C41.6034 28.3824 41.8129 28.441 42.1754 28.5738C41.577 28.3034 41.4306 28.2092 41.371 28.1389C41.1187 27.8422 40.9523 26.9568 41.2763 26.2987C41.5745 25.6926 41.7648 25.5829 42.1281 25.4769C42.1696 25.4649 42.2063 25.46 42.2471 25.46C42.3272 25.46 42.4818 25.4895 42.7255 25.5527L42.395 25.4224C42.1175 25.3122 41.9738 24.9705 42.0139 24.7204C42.0589 24.4401 42.1713 24.0806 42.644 23.7828C43.1023 23.4943 43.7625 23.1631 44.8106 23.1631C45.0327 23.1631 45.2673 23.1783 45.5078 23.2084C46.8184 23.3721 48.3469 24.0269 49.2601 24.4183L49.3426 24.4537C49.9835 24.728 51.1206 25.2989 51.534 26.0406C51.8885 26.6764 51.8875 27.9248 51.1197 28.6011C51.1227 28.8134 51.1317 28.9533 51.1392 29.0692C51.1555 29.3216 51.1662 29.4883 51.1022 29.9868C50.9993 30.7885 50.492 31.4534 49.6674 31.8735C49.6378 32.9764 48.8723 33.8913 47.8113 34.094C47.7474 34.3793 47.609 34.7936 47.1448 35.0274C46.8936 35.1385 46.6344 35.1914 46.36 35.1916H46.3599Z" fill="#FFBE85"/>
<path d="M44.8105 23.4719C45.014 23.4719 45.2327 23.4853 45.4688 23.5148C46.7753 23.6779 48.334 24.3583 49.2193 24.7373C50.1045 25.116 50.9578 25.6447 51.2617 26.1901C51.5402 26.6894 51.5928 27.8606 50.8349 28.4348C50.818 28.4478 50.8075 28.4688 50.8077 28.49C50.8101 29.2701 50.8889 29.2074 50.7937 29.948C50.6785 30.8452 50.0171 31.3787 49.3944 31.6624C49.3697 31.6737 49.3551 31.6983 49.3559 31.7256C49.3952 32.8191 48.6285 33.6982 47.6003 33.8145C47.5706 33.8178 47.5463 33.8378 47.5407 33.8669C47.4881 34.1259 47.4292 34.5385 47.0039 34.7529C46.7945 34.845 46.5775 34.8835 46.3599 34.8835C45.4555 34.8835 44.5408 34.2211 44.1203 34.0156C43.5989 33.7605 42.0969 33.0746 41.5947 32.6558C41.2697 32.3851 41.2087 32.0384 41.2117 31.7259C41.2127 31.6178 41.3185 31.547 41.426 31.547C41.4574 31.547 41.489 31.5531 41.518 31.5661C42.4235 31.9688 45.3424 33.0038 45.4235 33.0347C45.4343 33.0388 45.4452 33.0407 45.4557 33.0407C45.5467 33.0407 45.6164 32.8996 45.4617 32.8138C45.3908 32.7744 42.5425 31.5184 41.2439 30.7604C41.2386 30.7559 41.2345 30.7518 41.2304 30.7463C40.8992 30.3056 40.7765 29.0233 41.4282 28.6919C41.4389 28.6864 41.4498 28.6832 41.4616 28.6832C41.4628 28.6832 41.464 28.6832 41.4652 28.6833C41.7452 28.7007 43.1141 29.2749 43.6628 29.5022C44.2094 29.7287 46.6651 30.4704 46.7998 30.5184C46.8401 30.535 46.8768 30.5422 46.909 30.5422C47.0755 30.5422 47.1185 30.3469 46.9039 30.2405C46.6729 30.1261 41.7844 28.1473 41.6085 27.9405C41.4327 27.7335 41.2842 26.9858 41.5556 26.4342C41.827 25.8825 41.9562 25.8489 42.2224 25.7713C42.2284 25.7695 42.2364 25.7688 42.247 25.7688C42.7063 25.7688 47.4474 27.401 47.7679 27.5019C47.8173 27.5182 47.858 27.5253 47.8908 27.5253C48.0499 27.5253 48.0262 27.3615 47.9202 27.2957C47.771 27.2035 43.0707 25.3586 42.5105 25.1363C42.3872 25.0874 42.3 24.8991 42.3209 24.7691C42.3591 24.5315 42.4476 24.2721 42.8106 24.0435C43.281 23.7473 43.8877 23.4719 44.8105 23.4719ZM44.8105 22.855C43.6696 22.855 42.9325 23.2361 42.4773 23.5226C41.8932 23.8907 41.7578 24.3547 41.7068 24.6718C41.6744 24.8742 41.7137 25.0829 41.8056 25.2629C41.4874 25.397 41.2667 25.6149 40.9967 26.1636C40.6712 26.8252 40.7516 27.725 41.0377 28.2037C40.7198 28.4053 40.5008 28.7356 40.3997 29.1676C40.2464 29.822 40.3892 30.6593 40.7317 31.1151C40.7551 31.1457 40.7783 31.1721 40.8035 31.1964C40.6726 31.3357 40.5919 31.5191 40.5896 31.7193C40.5838 32.3235 40.7817 32.7841 41.1946 33.1281C41.6424 33.5015 42.6039 33.9747 43.5505 34.4271C43.6664 34.4825 43.7671 34.5305 43.8452 34.5689C43.9141 34.6025 44.0147 34.6603 44.131 34.7272C44.6669 35.035 45.4768 35.5004 46.3599 35.5004C46.678 35.5004 46.9796 35.4384 47.2563 35.3168C47.2661 35.3123 47.2758 35.3076 47.2856 35.3029C47.7674 35.0602 47.9677 34.6671 48.0647 34.3522C49.1105 34.0691 49.8647 33.1642 49.9672 32.0632C50.7923 31.5931 51.301 30.8798 51.4105 30.026C51.4752 29.523 51.4679 29.3362 51.4495 29.0498C51.4437 28.96 51.4373 28.8625 51.4334 28.732C52.2403 27.9168 52.1885 26.5776 51.8061 25.8916C51.3479 25.0697 50.143 24.4607 49.4655 24.1709L49.3832 24.1355C48.4548 23.7377 46.901 23.0718 45.5465 22.9026C45.2931 22.8711 45.0455 22.855 44.8105 22.855Z" fill="#1D5632"/>
<path d="M95.9373 0V12.0733C95.9373 12.7211 95.9607 13.3835 96.0079 14.061C96.0546 14.7382 96.1956 15.3521 96.4309 15.9014C96.6657 16.4512 97.0373 16.898 97.5449 17.2412C98.0525 17.5849 98.7668 17.7566 99.6882 17.7566C100.609 17.7566 101.319 17.5849 101.818 17.2412C102.315 16.898 102.687 16.4512 102.931 15.9014C103.176 15.3521 103.322 14.7382 103.369 14.061C103.415 13.3835 103.439 12.7211 103.439 12.0733V0H108.939V12.8684C108.939 16.3237 108.181 18.8461 106.668 20.4362C105.155 22.0263 102.828 22.8214 99.6882 22.8214C96.548 22.8214 94.217 22.0263 92.6941 20.4362C91.1712 18.8461 90.4097 16.3237 90.4097 12.8684V0H95.9373Z" fill="#D99A29"/>
<path d="M122.588 4.88824V22.2031H117.061V4.88824H112.52V0H127.129V4.88824H122.588Z" fill="#D99A29"/>
<path d="M141.032 4.88824V22.2031H135.505V4.88824H130.964V0H145.573V4.88824H141.032Z" fill="#D99A29"/>
<path d="M155.98 11.5432L148.224 0H154.823L158.772 6.06615L162.692 0H169.291L161.507 11.5432V22.2031H155.98V11.5432Z" fill="#D99A29"/>
<path d="M63.0254 27.7969H71.2606C73.2157 27.7969 74.7013 28.2879 75.7167 29.2693C76.732 30.2512 77.2394 31.6646 77.2394 33.5097C77.2394 34.6286 77.0465 35.5562 76.6614 36.2923C76.2758 37.0285 75.6883 37.6519 74.8988 38.1622C75.6883 38.3195 76.3604 38.5598 76.9153 38.8836C77.4696 39.2076 77.9208 39.6051 78.2688 40.0762C78.6165 40.5473 78.8656 41.0774 79.0162 41.6663C79.1665 42.2553 79.242 42.8839 79.242 43.551C79.242 44.5916 79.0678 45.5144 78.7201 46.319C78.3719 47.1242 77.8832 47.8015 77.2534 48.3509C76.6234 48.9008 75.8576 49.313 74.9552 49.5877C74.0525 49.8628 73.0373 50 71.9092 50H63.0254V27.7969ZM68.5532 36.5132H69.5686C71.2982 36.5132 72.1631 35.7968 72.1631 34.3636C72.1631 32.9308 71.2982 32.214 69.5686 32.214H68.5532V36.5132ZM68.5532 45.5239H69.7659C71.1571 45.5239 72.1535 45.3377 72.7555 44.9645C73.3569 44.5917 73.6579 43.9928 73.6579 43.1682C73.6579 42.3438 73.3569 41.7451 72.7555 41.3719C72.1535 40.9991 71.1571 40.8124 69.7659 40.8124H68.5532V45.5239Z" fill="#D99A29"/>
<path d="M95.8252 46.1423H87.9286L86.6595 50H80.7651L88.8593 27.7969H94.8944L102.989 50H97.0942L95.8252 46.1423ZM94.3588 41.7546L91.8768 34.3635L89.3951 41.7546H94.3588Z" fill="#D99A29"/>
<path d="M107.782 27.7969L112.915 41.3131L118.076 27.7969H124.083L115.115 49.9999H110.715L101.775 27.7969H107.782Z" fill="#D99A29"/>
<path d="M137.648 46.1423H129.752L128.483 50H122.588L130.682 27.7969H136.718L144.812 50H138.917L137.648 46.1423ZM136.182 41.7546L133.7 34.3635L131.218 41.7546H136.182Z" fill="#D99A29"/>
<path d="M166.048 50H159.166L153.892 41.4603V50H148.365V27.7969H156.966C158.151 27.7969 159.185 27.9786 160.069 28.3417C160.952 28.7051 161.681 29.2007 162.254 29.8288C162.828 30.4572 163.26 31.1834 163.552 32.0077C163.843 32.8322 163.989 33.7157 163.989 34.658C163.989 36.3466 163.598 37.7159 162.818 38.7658C162.038 39.8162 160.887 40.528 159.364 40.9007L166.048 50ZM153.892 37.7205H154.936C156.026 37.7205 156.863 37.4849 157.446 37.0138C158.028 36.5426 158.32 35.8652 158.32 34.9819C158.32 34.0985 158.028 33.4212 157.446 32.9501C156.863 32.4789 156.026 32.2433 154.936 32.2433H153.892V37.7205Z" fill="#D99A29"/>
<path d="M175.58 27.7969H170.052V49.9999H175.58V27.7969Z" fill="#D99A29"/>
<path d="M194.757 46.1423H186.86L185.591 50H179.697L187.791 27.7969H193.826L201.92 50H196.026L194.757 46.1423ZM193.291 41.7546L190.809 34.3635L188.327 41.7546H193.291Z" fill="#D99A29"/>
<path d="M206.038 49.9999V27.7969H211.565L221.774 41.3718V27.7969H227.274V49.9999H221.774L211.565 36.4248V49.9999H206.038Z" fill="#D99A29"/>
<path d="M63.0254 22.203V0H68.5531L78.7623 13.575V0H84.2617V22.203H78.7623L68.5531 8.62782V22.203H63.0254Z" fill="#D99A29"/>
</svg>
